<?xml version="1.0" encoding="utf-8" standalone="no"?>
<!DOCTYPE svg PUBLIC "-//W3C//DTD SVG 1.1//EN"
  "http://www.w3.org/Graphics/SVG/1.1/DTD/svg11.dtd">
<svg xmlns:xlink="http://www.w3.org/1999/xlink" width="1440pt" height="720pt" viewBox="0 0 1440 720" xmlns="http://www.w3.org/2000/svg" version="1.1">
 <metadata>
  <rdf:RDF xmlns:dc="http://purl.org/dc/elements/1.1/" xmlns:cc="http://creativecommons.org/ns#" xmlns:rdf="http://www.w3.org/1999/02/22-rdf-syntax-ns#">
   <cc:Work>
    <dc:type rdf:resource="http://purl.org/dc/dcmitype/StillImage"/>
    <dc:date>2023-04-01T13:21:19.693008</dc:date>
    <dc:format>image/svg+xml</dc:format>
    <dc:creator>
     <cc:Agent>
      <dc:title>Matplotlib v3.5.2, https://matplotlib.org/</dc:title>
     </cc:Agent>
    </dc:creator>
   </cc:Work>
  </rdf:RDF>
 </metadata>
 <defs>
  <style type="text/css">*{stroke-linejoin: round; stroke-linecap: butt}</style>
 </defs>
 <g id="figure_1">
  <g id="patch_1">
   <path d="M 0 720 
L 1440 720 
L 1440 0 
L 0 0 
z
" style="fill: #ffffff"/>
  </g>
  <g id="axes_1">
   <g id="patch_2">
    <path d="M 82.640625 661.5 
L 1431 661.5 
L 1431 9 
L 82.640625 9 
z
" style="fill: #ffffff"/>
   </g>
   <g id="matplotlib.axis_1">
    <g id="xtick_1">
     <g id="line2d_1">
      <path d="M 126.05122 661.5 
L 126.05122 9 
" clip-path="url(#pd81107b9ed)" style="fill: none; stroke: #cccccc; stroke-linecap: round"/>
     </g>
     <g id="text_1">
      <!-- 0 -->
      <g style="fill: #262626" transform="translate(120.802157 683.537422)scale(0.165 -0.165)">
       <defs>
        <path id="DejaVuSans-30" d="M 2034 4250 
Q 1547 4250 1301 3770 
Q 1056 3291 1056 2328 
Q 1056 1369 1301 889 
Q 1547 409 2034 409 
Q 2525 409 2770 889 
Q 3016 1369 3016 2328 
Q 3016 3291 2770 3770 
Q 2525 4250 2034 4250 
z
M 2034 4750 
Q 2819 4750 3233 4129 
Q 3647 3509 3647 2328 
Q 3647 1150 3233 529 
Q 2819 -91 2034 -91 
Q 1250 -91 836 529 
Q 422 1150 422 2328 
Q 422 3509 836 4129 
Q 1250 4750 2034 4750 
z
" transform="scale(0.015625)"/>
       </defs>
       <use xlink:href="#DejaVuSans-30"/>
      </g>
     </g>
    </g>
    <g id="xtick_2">
     <g id="line2d_2">
      <path d="M 425.022256 661.5 
L 425.022256 9 
" clip-path="url(#pd81107b9ed)" style="fill: none; stroke: #cccccc; stroke-linecap: round"/>
     </g>
     <g id="text_2">
      <!-- 1 -->
      <g style="fill: #262626" transform="translate(419.773194 683.537422)scale(0.165 -0.165)">
       <defs>
        <path id="DejaVuSans-31" d="M 794 531 
L 1825 531 
L 1825 4091 
L 703 3866 
L 703 4441 
L 1819 4666 
L 2450 4666 
L 2450 531 
L 3481 531 
L 3481 0 
L 794 0 
L 794 531 
z
" transform="scale(0.015625)"/>
       </defs>
       <use xlink:href="#DejaVuSans-31"/>
      </g>
     </g>
    </g>
    <g id="xtick_3">
     <g id="line2d_3">
      <path d="M 723.993293 661.5 
L 723.993293 9 
" clip-path="url(#pd81107b9ed)" style="fill: none; stroke: #cccccc; stroke-linecap: round"/>
     </g>
     <g id="text_3">
      <!-- 2 -->
      <g style="fill: #262626" transform="translate(718.74423 683.537422)scale(0.165 -0.165)">
       <defs>
        <path id="DejaVuSans-32" d="M 1228 531 
L 3431 531 
L 3431 0 
L 469 0 
L 469 531 
Q 828 903 1448 1529 
Q 2069 2156 2228 2338 
Q 2531 2678 2651 2914 
Q 2772 3150 2772 3378 
Q 2772 3750 2511 3984 
Q 2250 4219 1831 4219 
Q 1534 4219 1204 4116 
Q 875 4013 500 3803 
L 500 4441 
Q 881 4594 1212 4672 
Q 1544 4750 1819 4750 
Q 2544 4750 2975 4387 
Q 3406 4025 3406 3419 
Q 3406 3131 3298 2873 
Q 3191 2616 2906 2266 
Q 2828 2175 2409 1742 
Q 1991 1309 1228 531 
z
" transform="scale(0.015625)"/>
       </defs>
       <use xlink:href="#DejaVuSans-32"/>
      </g>
     </g>
    </g>
    <g id="xtick_4">
     <g id="line2d_4">
      <path d="M 1022.964329 661.5 
L 1022.964329 9 
" clip-path="url(#pd81107b9ed)" style="fill: none; stroke: #cccccc; stroke-linecap: round"/>
     </g>
     <g id="text_4">
      <!-- 3 -->
      <g style="fill: #262626" transform="translate(1017.715267 683.537422)scale(0.165 -0.165)">
       <defs>
        <path id="DejaVuSans-33" d="M 2597 2516 
Q 3050 2419 3304 2112 
Q 3559 1806 3559 1356 
Q 3559 666 3084 287 
Q 2609 -91 1734 -91 
Q 1441 -91 1130 -33 
Q 819 25 488 141 
L 488 750 
Q 750 597 1062 519 
Q 1375 441 1716 441 
Q 2309 441 2620 675 
Q 2931 909 2931 1356 
Q 2931 1769 2642 2001 
Q 2353 2234 1838 2234 
L 1294 2234 
L 1294 2753 
L 1863 2753 
Q 2328 2753 2575 2939 
Q 2822 3125 2822 3475 
Q 2822 3834 2567 4026 
Q 2313 4219 1838 4219 
Q 1578 4219 1281 4162 
Q 984 4106 628 3988 
L 628 4550 
Q 988 4650 1302 4700 
Q 1616 4750 1894 4750 
Q 2613 4750 3031 4423 
Q 3450 4097 3450 3541 
Q 3450 3153 3228 2886 
Q 3006 2619 2597 2516 
z
" transform="scale(0.015625)"/>
       </defs>
       <use xlink:href="#DejaVuSans-33"/>
      </g>
     </g>
    </g>
    <g id="xtick_5">
     <g id="line2d_5">
      <path d="M 1321.935366 661.5 
L 1321.935366 9 
" clip-path="url(#pd81107b9ed)" style="fill: none; stroke: #cccccc; stroke-linecap: round"/>
     </g>
     <g id="text_5">
      <!-- 4 -->
      <g style="fill: #262626" transform="translate(1316.686303 683.537422)scale(0.165 -0.165)">
       <defs>
        <path id="DejaVuSans-34" d="M 2419 4116 
L 825 1625 
L 2419 1625 
L 2419 4116 
z
M 2253 4666 
L 3047 4666 
L 3047 1625 
L 3713 1625 
L 3713 1100 
L 3047 1100 
L 3047 0 
L 2419 0 
L 2419 1100 
L 313 1100 
L 313 1709 
L 2253 4666 
z
" transform="scale(0.015625)"/>
       </defs>
       <use xlink:href="#DejaVuSans-34"/>
      </g>
     </g>
    </g>
    <g id="text_6">
     <!-- epoch -->
     <g style="fill: #262626" transform="translate(729.409688 704.646094)scale(0.18 -0.18)">
      <defs>
       <path id="DejaVuSans-65" d="M 3597 1894 
L 3597 1613 
L 953 1613 
Q 991 1019 1311 708 
Q 1631 397 2203 397 
Q 2534 397 2845 478 
Q 3156 559 3463 722 
L 3463 178 
Q 3153 47 2828 -22 
Q 2503 -91 2169 -91 
Q 1331 -91 842 396 
Q 353 884 353 1716 
Q 353 2575 817 3079 
Q 1281 3584 2069 3584 
Q 2775 3584 3186 3129 
Q 3597 2675 3597 1894 
z
M 3022 2063 
Q 3016 2534 2758 2815 
Q 2500 3097 2075 3097 
Q 1594 3097 1305 2825 
Q 1016 2553 972 2059 
L 3022 2063 
z
" transform="scale(0.015625)"/>
       <path id="DejaVuSans-70" d="M 1159 525 
L 1159 -1331 
L 581 -1331 
L 581 3500 
L 1159 3500 
L 1159 2969 
Q 1341 3281 1617 3432 
Q 1894 3584 2278 3584 
Q 2916 3584 3314 3078 
Q 3713 2572 3713 1747 
Q 3713 922 3314 415 
Q 2916 -91 2278 -91 
Q 1894 -91 1617 61 
Q 1341 213 1159 525 
z
M 3116 1747 
Q 3116 2381 2855 2742 
Q 2594 3103 2138 3103 
Q 1681 3103 1420 2742 
Q 1159 2381 1159 1747 
Q 1159 1113 1420 752 
Q 1681 391 2138 391 
Q 2594 391 2855 752 
Q 3116 1113 3116 1747 
z
" transform="scale(0.015625)"/>
       <path id="DejaVuSans-6f" d="M 1959 3097 
Q 1497 3097 1228 2736 
Q 959 2375 959 1747 
Q 959 1119 1226 758 
Q 1494 397 1959 397 
Q 2419 397 2687 759 
Q 2956 1122 2956 1747 
Q 2956 2369 2687 2733 
Q 2419 3097 1959 3097 
z
M 1959 3584 
Q 2709 3584 3137 3096 
Q 3566 2609 3566 1747 
Q 3566 888 3137 398 
Q 2709 -91 1959 -91 
Q 1206 -91 779 398 
Q 353 888 353 1747 
Q 353 2609 779 3096 
Q 1206 3584 1959 3584 
z
" transform="scale(0.015625)"/>
       <path id="DejaVuSans-63" d="M 3122 3366 
L 3122 2828 
Q 2878 2963 2633 3030 
Q 2388 3097 2138 3097 
Q 1578 3097 1268 2742 
Q 959 2388 959 1747 
Q 959 1106 1268 751 
Q 1578 397 2138 397 
Q 2388 397 2633 464 
Q 2878 531 3122 666 
L 3122 134 
Q 2881 22 2623 -34 
Q 2366 -91 2075 -91 
Q 1284 -91 818 406 
Q 353 903 353 1747 
Q 353 2603 823 3093 
Q 1294 3584 2113 3584 
Q 2378 3584 2631 3529 
Q 2884 3475 3122 3366 
z
" transform="scale(0.015625)"/>
       <path id="DejaVuSans-68" d="M 3513 2113 
L 3513 0 
L 2938 0 
L 2938 2094 
Q 2938 2591 2744 2837 
Q 2550 3084 2163 3084 
Q 1697 3084 1428 2787 
Q 1159 2491 1159 1978 
L 1159 0 
L 581 0 
L 581 4863 
L 1159 4863 
L 1159 2956 
Q 1366 3272 1645 3428 
Q 1925 3584 2291 3584 
Q 2894 3584 3203 3211 
Q 3513 2838 3513 2113 
z
" transform="scale(0.015625)"/>
      </defs>
      <use xlink:href="#DejaVuSans-65"/>
      <use xlink:href="#DejaVuSans-70" x="61.523438"/>
      <use xlink:href="#DejaVuSans-6f" x="125"/>
      <use xlink:href="#DejaVuSans-63" x="186.181641"/>
      <use xlink:href="#DejaVuSans-68" x="241.162109"/>
     </g>
    </g>
    <g id="text_7">
     <!-- 1e4 -->
     <g style="fill: #262626" transform="translate(1399.851094 702.506328)scale(0.165 -0.165)">
      <use xlink:href="#DejaVuSans-31"/>
      <use xlink:href="#DejaVuSans-65" x="63.623047"/>
      <use xlink:href="#DejaVuSans-34" x="125.146484"/>
     </g>
    </g>
   </g>
   <g id="matplotlib.axis_2">
    <g id="ytick_1">
     <g id="line2d_6">
      <path d="M 82.640625 653.977007 
L 1431 653.977007 
" clip-path="url(#pd81107b9ed)" style="fill: none; stroke: #cccccc; stroke-linecap: round"/>
     </g>
     <g id="text_8">
      <!-- 200 -->
      <g style="fill: #262626" transform="translate(41.64625 660.245717)scale(0.165 -0.165)">
       <use xlink:href="#DejaVuSans-32"/>
       <use xlink:href="#DejaVuSans-30" x="63.623047"/>
       <use xlink:href="#DejaVuSans-30" x="127.246094"/>
      </g>
     </g>
    </g>
    <g id="ytick_2">
     <g id="line2d_7">
      <path d="M 82.640625 513.793119 
L 1431 513.793119 
" clip-path="url(#pd81107b9ed)" style="fill: none; stroke: #cccccc; stroke-linecap: round"/>
     </g>
     <g id="text_9">
      <!-- 400 -->
      <g style="fill: #262626" transform="translate(41.64625 520.061829)scale(0.165 -0.165)">
       <use xlink:href="#DejaVuSans-34"/>
       <use xlink:href="#DejaVuSans-30" x="63.623047"/>
       <use xlink:href="#DejaVuSans-30" x="127.246094"/>
      </g>
     </g>
    </g>
    <g id="ytick_3">
     <g id="line2d_8">
      <path d="M 82.640625 373.60923 
L 1431 373.60923 
" clip-path="url(#pd81107b9ed)" style="fill: none; stroke: #cccccc; stroke-linecap: round"/>
     </g>
     <g id="text_10">
      <!-- 600 -->
      <g style="fill: #262626" transform="translate(41.64625 379.877941)scale(0.165 -0.165)">
       <defs>
        <path id="DejaVuSans-36" d="M 2113 2584 
Q 1688 2584 1439 2293 
Q 1191 2003 1191 1497 
Q 1191 994 1439 701 
Q 1688 409 2113 409 
Q 2538 409 2786 701 
Q 3034 994 3034 1497 
Q 3034 2003 2786 2293 
Q 2538 2584 2113 2584 
z
M 3366 4563 
L 3366 3988 
Q 3128 4100 2886 4159 
Q 2644 4219 2406 4219 
Q 1781 4219 1451 3797 
Q 1122 3375 1075 2522 
Q 1259 2794 1537 2939 
Q 1816 3084 2150 3084 
Q 2853 3084 3261 2657 
Q 3669 2231 3669 1497 
Q 3669 778 3244 343 
Q 2819 -91 2113 -91 
Q 1303 -91 875 529 
Q 447 1150 447 2328 
Q 447 3434 972 4092 
Q 1497 4750 2381 4750 
Q 2619 4750 2861 4703 
Q 3103 4656 3366 4563 
z
" transform="scale(0.015625)"/>
       </defs>
       <use xlink:href="#DejaVuSans-36"/>
       <use xlink:href="#DejaVuSans-30" x="63.623047"/>
       <use xlink:href="#DejaVuSans-30" x="127.246094"/>
      </g>
     </g>
    </g>
    <g id="ytick_4">
     <g id="line2d_9">
      <path d="M 82.640625 233.425342 
L 1431 233.425342 
" clip-path="url(#pd81107b9ed)" style="fill: none; stroke: #cccccc; stroke-linecap: round"/>
     </g>
     <g id="text_11">
      <!-- 800 -->
      <g style="fill: #262626" transform="translate(41.64625 239.694053)scale(0.165 -0.165)">
       <defs>
        <path id="DejaVuSans-38" d="M 2034 2216 
Q 1584 2216 1326 1975 
Q 1069 1734 1069 1313 
Q 1069 891 1326 650 
Q 1584 409 2034 409 
Q 2484 409 2743 651 
Q 3003 894 3003 1313 
Q 3003 1734 2745 1975 
Q 2488 2216 2034 2216 
z
M 1403 2484 
Q 997 2584 770 2862 
Q 544 3141 544 3541 
Q 544 4100 942 4425 
Q 1341 4750 2034 4750 
Q 2731 4750 3128 4425 
Q 3525 4100 3525 3541 
Q 3525 3141 3298 2862 
Q 3072 2584 2669 2484 
Q 3125 2378 3379 2068 
Q 3634 1759 3634 1313 
Q 3634 634 3220 271 
Q 2806 -91 2034 -91 
Q 1263 -91 848 271 
Q 434 634 434 1313 
Q 434 1759 690 2068 
Q 947 2378 1403 2484 
z
M 1172 3481 
Q 1172 3119 1398 2916 
Q 1625 2713 2034 2713 
Q 2441 2713 2670 2916 
Q 2900 3119 2900 3481 
Q 2900 3844 2670 4047 
Q 2441 4250 2034 4250 
Q 1625 4250 1398 4047 
Q 1172 3844 1172 3481 
z
" transform="scale(0.015625)"/>
       </defs>
       <use xlink:href="#DejaVuSans-38"/>
       <use xlink:href="#DejaVuSans-30" x="63.623047"/>
       <use xlink:href="#DejaVuSans-30" x="127.246094"/>
      </g>
     </g>
    </g>
    <g id="ytick_5">
     <g id="line2d_10">
      <path d="M 82.640625 93.241454 
L 1431 93.241454 
" clip-path="url(#pd81107b9ed)" style="fill: none; stroke: #cccccc; stroke-linecap: round"/>
     </g>
     <g id="text_12">
      <!-- 1000 -->
      <g style="fill: #262626" transform="translate(31.148125 99.510165)scale(0.165 -0.165)">
       <use xlink:href="#DejaVuSans-31"/>
       <use xlink:href="#DejaVuSans-30" x="63.623047"/>
       <use xlink:href="#DejaVuSans-30" x="127.246094"/>
       <use xlink:href="#DejaVuSans-30" x="190.869141"/>
      </g>
     </g>
    </g>
    <g id="text_13">
     <!-- avg_max_reward -->
     <g style="fill: #262626" transform="translate(22.904062 411.58125)rotate(-90)scale(0.18 -0.18)">
      <defs>
       <path id="DejaVuSans-61" d="M 2194 1759 
Q 1497 1759 1228 1600 
Q 959 1441 959 1056 
Q 959 750 1161 570 
Q 1363 391 1709 391 
Q 2188 391 2477 730 
Q 2766 1069 2766 1631 
L 2766 1759 
L 2194 1759 
z
M 3341 1997 
L 3341 0 
L 2766 0 
L 2766 531 
Q 2569 213 2275 61 
Q 1981 -91 1556 -91 
Q 1019 -91 701 211 
Q 384 513 384 1019 
Q 384 1609 779 1909 
Q 1175 2209 1959 2209 
L 2766 2209 
L 2766 2266 
Q 2766 2663 2505 2880 
Q 2244 3097 1772 3097 
Q 1472 3097 1187 3025 
Q 903 2953 641 2809 
L 641 3341 
Q 956 3463 1253 3523 
Q 1550 3584 1831 3584 
Q 2591 3584 2966 3190 
Q 3341 2797 3341 1997 
z
" transform="scale(0.015625)"/>
       <path id="DejaVuSans-76" d="M 191 3500 
L 800 3500 
L 1894 563 
L 2988 3500 
L 3597 3500 
L 2284 0 
L 1503 0 
L 191 3500 
z
" transform="scale(0.015625)"/>
       <path id="DejaVuSans-67" d="M 2906 1791 
Q 2906 2416 2648 2759 
Q 2391 3103 1925 3103 
Q 1463 3103 1205 2759 
Q 947 2416 947 1791 
Q 947 1169 1205 825 
Q 1463 481 1925 481 
Q 2391 481 2648 825 
Q 2906 1169 2906 1791 
z
M 3481 434 
Q 3481 -459 3084 -895 
Q 2688 -1331 1869 -1331 
Q 1566 -1331 1297 -1286 
Q 1028 -1241 775 -1147 
L 775 -588 
Q 1028 -725 1275 -790 
Q 1522 -856 1778 -856 
Q 2344 -856 2625 -561 
Q 2906 -266 2906 331 
L 2906 616 
Q 2728 306 2450 153 
Q 2172 0 1784 0 
Q 1141 0 747 490 
Q 353 981 353 1791 
Q 353 2603 747 3093 
Q 1141 3584 1784 3584 
Q 2172 3584 2450 3431 
Q 2728 3278 2906 2969 
L 2906 3500 
L 3481 3500 
L 3481 434 
z
" transform="scale(0.015625)"/>
       <path id="DejaVuSans-5f" d="M 3263 -1063 
L 3263 -1509 
L -63 -1509 
L -63 -1063 
L 3263 -1063 
z
" transform="scale(0.015625)"/>
       <path id="DejaVuSans-6d" d="M 3328 2828 
Q 3544 3216 3844 3400 
Q 4144 3584 4550 3584 
Q 5097 3584 5394 3201 
Q 5691 2819 5691 2113 
L 5691 0 
L 5113 0 
L 5113 2094 
Q 5113 2597 4934 2840 
Q 4756 3084 4391 3084 
Q 3944 3084 3684 2787 
Q 3425 2491 3425 1978 
L 3425 0 
L 2847 0 
L 2847 2094 
Q 2847 2600 2669 2842 
Q 2491 3084 2119 3084 
Q 1678 3084 1418 2786 
Q 1159 2488 1159 1978 
L 1159 0 
L 581 0 
L 581 3500 
L 1159 3500 
L 1159 2956 
Q 1356 3278 1631 3431 
Q 1906 3584 2284 3584 
Q 2666 3584 2933 3390 
Q 3200 3197 3328 2828 
z
" transform="scale(0.015625)"/>
       <path id="DejaVuSans-78" d="M 3513 3500 
L 2247 1797 
L 3578 0 
L 2900 0 
L 1881 1375 
L 863 0 
L 184 0 
L 1544 1831 
L 300 3500 
L 978 3500 
L 1906 2253 
L 2834 3500 
L 3513 3500 
z
" transform="scale(0.015625)"/>
       <path id="DejaVuSans-72" d="M 2631 2963 
Q 2534 3019 2420 3045 
Q 2306 3072 2169 3072 
Q 1681 3072 1420 2755 
Q 1159 2438 1159 1844 
L 1159 0 
L 581 0 
L 581 3500 
L 1159 3500 
L 1159 2956 
Q 1341 3275 1631 3429 
Q 1922 3584 2338 3584 
Q 2397 3584 2469 3576 
Q 2541 3569 2628 3553 
L 2631 2963 
z
" transform="scale(0.015625)"/>
       <path id="DejaVuSans-77" d="M 269 3500 
L 844 3500 
L 1563 769 
L 2278 3500 
L 2956 3500 
L 3675 769 
L 4391 3500 
L 4966 3500 
L 4050 0 
L 3372 0 
L 2619 2869 
L 1863 0 
L 1184 0 
L 269 3500 
z
" transform="scale(0.015625)"/>
       <path id="DejaVuSans-64" d="M 2906 2969 
L 2906 4863 
L 3481 4863 
L 3481 0 
L 2906 0 
L 2906 525 
Q 2725 213 2448 61 
Q 2172 -91 1784 -91 
Q 1150 -91 751 415 
Q 353 922 353 1747 
Q 353 2572 751 3078 
Q 1150 3584 1784 3584 
Q 2172 3584 2448 3432 
Q 2725 3281 2906 2969 
z
M 947 1747 
Q 947 1113 1208 752 
Q 1469 391 1925 391 
Q 2381 391 2643 752 
Q 2906 1113 2906 1747 
Q 2906 2381 2643 2742 
Q 2381 3103 1925 3103 
Q 1469 3103 1208 2742 
Q 947 2381 947 1747 
z
" transform="scale(0.015625)"/>
      </defs>
      <use xlink:href="#DejaVuSans-61"/>
      <use xlink:href="#DejaVuSans-76" x="61.279297"/>
      <use xlink:href="#DejaVuSans-67" x="120.458984"/>
      <use xlink:href="#DejaVuSans-5f" x="183.935547"/>
      <use xlink:href="#DejaVuSans-6d" x="233.935547"/>
      <use xlink:href="#DejaVuSans-61" x="331.347656"/>
      <use xlink:href="#DejaVuSans-78" x="392.626953"/>
      <use xlink:href="#DejaVuSans-5f" x="451.806641"/>
      <use xlink:href="#DejaVuSans-72" x="501.806641"/>
      <use xlink:href="#DejaVuSans-65" x="540.669922"/>
      <use xlink:href="#DejaVuSans-77" x="602.193359"/>
      <use xlink:href="#DejaVuSans-61" x="683.980469"/>
      <use xlink:href="#DejaVuSans-72" x="745.259766"/>
      <use xlink:href="#DejaVuSans-64" x="784.623047"/>
     </g>
    </g>
   </g>
   <g id="line2d_11">
    <path d="M 143.929687 597.819026 
L 145.03588 579.20449 
L 147.128678 556.224223 
L 147.218369 555.791904 
L 147.457546 554.936816 
L 150.387462 548.913431 
L 150.686433 548.382572 
L 150.746227 548.441134 
L 151.224581 548.80218 
L 151.702934 548.316222 
L 151.912214 547.828309 
L 153.227687 547.735696 
L 154.483365 550.657114 
L 154.931822 551.646945 
L 155.768941 551.851673 
L 156.067912 551.276759 
L 156.1875 551.396011 
L 156.755545 551.962456 
L 160.402992 611.449323 
L 160.851448 615.444211 
L 161.957641 622.805063 
L 162.017435 622.66775 
L 162.107127 622.461781 
L 162.166921 622.52884 
L 163.631879 624.263463 
L 163.811261 625.014686 
L 163.841159 624.892166 
L 165.724676 616.749338 
L 166.800972 609.070004 
L 166.890663 609.208509 
L 168.26593 613.987306 
L 169.312329 614.892554 
L 169.910271 615.162663 
L 171.106155 616.429648 
L 171.943274 619.222734 
L 172.152553 619.640756 
L 173.139158 608.730029 
L 175.859794 574.367918 
L 176.00928 573.122523 
L 176.098971 573.216019 
L 176.696913 573.839329 
L 176.72681 573.742101 
L 178.580431 567.356811 
L 178.759813 566.100879 
L 178.849505 566.216084 
L 181.091787 568.924309 
L 181.749524 568.508537 
L 182.287671 562.51684 
L 184.141292 542.348539 
L 186.263986 527.219983 
L 187.011414 520.97485 
L 187.101105 520.481672 
L 187.131002 520.673467 
L 188.924829 532.88584 
L 190.957832 547.307286 
L 191.017626 547.179335 
L 191.2867 546.399725 
L 191.645465 545.31999 
L 191.705259 545.396822 
L 191.765053 545.473654 
L 194.754764 508.436187 
L 196.010442 507.494298 
L 196.638281 508.302889 
L 198.432107 517.266458 
L 198.462005 517.457922 
L 198.521799 517.123344 
L 199.059947 513.606275 
L 199.627992 507.14783 
L 202.826982 431.440729 
L 203.424924 427.294842 
L 203.992969 424.298276 
L 206.713605 413.911957 
L 208.447637 431.340048 
L 209.703316 439.908296 
L 209.76311 439.644653 
L 211.377553 433.011927 
L 211.61673 432.20057 
L 212.603335 426.920632 
L 213.380659 423.887652 
L 213.410556 423.737471 
L 213.440454 423.946044 
L 213.739425 425.365989 
L 214.516749 426.461284 
L 216.938415 467.124052 
L 217.29718 472.591058 
L 217.50646 473.20318 
L 219.300286 443.888316 
L 220.316787 427.250386 
L 221.662157 416.893755 
L 223.336395 402.303525 
L 224.293102 397.163822 
L 224.352896 397.329279 
L 225.608575 401.094103 
L 226.086928 403.436956 
L 227.31271 403.158313 
L 228.568388 399.58436 
L 228.628182 399.747064 
L 229.256021 401.139655 
L 231.558098 405.973366 
L 231.587995 405.897799 
L 231.857069 405.377565 
L 231.976658 405.414769 
L 232.006555 405.481387 
L 232.096246 405.436205 
L 232.126143 405.421145 
L 234.42822 444.923825 
L 235.115854 451.937644 
L 235.205545 451.885728 
L 236.311738 451.373739 
L 237.178754 452.732358 
L 239.241654 473.804884 
L 239.271551 473.72998 
L 240.557127 470.218919 
L 241.03548 468.001272 
L 242.141673 466.223797 
L 242.17157 466.302427 
L 244.055088 471.54233 
L 244.533441 473.350813 
L 244.563338 473.327375 
L 246.536547 431.685575 
L 248.001505 377.246677 
L 249.376772 327.805374 
L 249.406669 328.130863 
L 249.885023 332.192446 
L 252.127306 344.322972 
L 252.1871 344.116902 
L 252.665454 342.468342 
L 252.725248 342.596042 
L 252.964425 343.106845 
L 254.728354 330.415474 
L 257.628373 306.370578 
L 259.51189 294.519225 
L 259.541787 295.029317 
L 260.588186 314.761259 
L 261.216025 325.191412 
L 261.425305 329.751548 
L 264.325324 417.441829 
L 264.415015 416.567058 
L 264.743883 414.238858 
L 265.790282 413.68961 
L 267.853182 384.963218 
L 268.122256 381.75141 
L 268.39133 377.968949 
L 269.377934 362.647389 
L 271.351143 342.582071 
L 272.128468 341.012731 
L 272.875896 334.723953 
L 272.905793 334.979778 
L 274.340854 346.347814 
L 275.148075 351.243986 
L 275.775915 354.135161 
L 275.985194 355.909071 
L 276.044989 355.702833 
L 278.974905 345.435055 
L 279.004802 345.693612 
L 279.363567 347.936965 
L 279.752229 349.394213 
L 280.738834 350.531213 
L 281.486261 360.924643 
L 281.546056 360.4959 
L 283.190396 348.705477 
L 283.280088 348.724115 
L 284.475972 348.972628 
L 285.283194 356.46261 
L 286.449181 379.980496 
L 287.824447 397.711509 
L 287.854345 397.481549 
L 288.00383 395.570775 
L 289.827553 367.845298 
L 291.023438 351.671059 
L 292.488396 350.021045 
L 293.923457 360.980128 
L 293.983251 360.671903 
L 294.19253 360.045465 
L 294.880164 359.009556 
L 296.434813 352.643129 
L 298.079154 382.421103 
L 299.723495 418.147784 
L 300.29154 425.08226 
L 300.710099 425.720805 
L 302.56372 438.004692 
L 302.982279 443.657156 
L 303.879192 459.131129 
L 306.839005 496.781404 
L 307.586433 504.379008 
L 309.380259 512.916422 
L 309.978201 516.844782 
L 310.486452 522.036935 
L 311.413262 532.154048 
L 312.728735 537.423815 
L 312.788529 537.292205 
L 314.253487 534.067755 
L 314.313281 534.191276 
L 314.761738 535.117684 
L 314.821532 535.063564 
L 315.240091 534.537767 
L 315.419474 534.287233 
L 315.957622 524.023494 
L 318.618464 470.039356 
L 318.977229 469.781253 
L 321.608175 466.365738 
L 324.95665 301.169137 
L 325.524695 289.010571 
L 326.212329 285.829022 
L 326.272123 286.045006 
L 327.766978 291.849518 
L 329.202039 298.672289 
L 329.29173 298.6378 
L 329.321627 298.626304 
L 329.979364 294.376162 
L 330.368026 292.712011 
L 330.397923 293.019142 
L 332.7 315.667737 
L 333.357736 316.382446 
L 335.600019 286.54434 
L 335.629916 286.151647 
L 335.719607 286.189155 
L 336.556726 286.539233 
L 339.785614 442.463927 
L 340.323761 454.672829 
L 340.413453 454.468988 
L 341.37016 452.556068 
L 342.536147 450.340808 
L 343.22378 448.152892 
L 344.270179 441.314893 
L 344.329973 441.410793 
L 346.392873 444.922483 
L 347.439272 447.779675 
L 347.618655 448.655555 
L 348.90423 462.369983 
L 350.578468 471.817715 
L 354.734165 394.267827 
L 355.840358 384.997593 
L 355.900152 385.292566 
L 356.288815 388.214061 
L 356.378506 388.166201 
L 358.112538 387.2409 
L 358.142435 387.337341 
L 359.368216 391.643036 
L 361.670293 407.356069 
L 363.344531 410.5595 
L 363.374428 410.496217 
L 363.523914 410.179802 
L 364.839386 421.456275 
L 365.437329 427.620256 
L 365.586814 429.44976 
L 367.051772 455.115898 
L 369.294055 477.389563 
L 369.473437 478.374406 
L 369.533232 478.092167 
L 370.818807 471.609664 
L 371.775514 455.771745 
L 372.194074 450.283049 
L 372.253868 450.473234 
L 372.762119 452.418571 
L 373.27037 455.344596 
L 374.40646 462.466952 
L 375.004402 464.562197 
L 375.931212 468.444033 
L 375.961109 468.337234 
L 377.037405 464.894531 
L 378.1137 461.422952 
L 379.728144 451.852078 
L 380.296189 446.951064 
L 380.983822 443.22292 
L 381.043617 443.390685 
L 381.641559 445.352395 
L 382.359089 448.962203 
L 384.302401 461.438989 
L 384.93024 468.794362 
L 385.916845 481.899287 
L 387.142626 497.723059 
L 387.20242 497.520666 
L 387.740568 495.323398 
L 388.248819 492.285188 
L 389.115835 487.2056 
L 390.012748 483.226671 
L 390.461204 481.012723 
L 392.015854 337.295133 
L 393.450915 212.582755 
L 393.540606 212.837473 
L 395.932374 208.493615 
L 396.709699 201.640322 
L 399.041673 200.830043 
L 399.669512 202.064945 
L 399.699409 201.978035 
L 399.848895 201.831793 
L 400.088072 201.966786 
L 401.13447 204.439378 
L 401.164367 204.29836 
L 403.855107 191.141029 
L 404.33346 188.237537 
L 404.75202 186.34921 
L 405.409756 180.251661 
L 408.399466 435.157403 
L 408.489158 434.939545 
L 408.937614 436.191782 
L 410.701543 446.953824 
L 411.478868 449.589631 
L 411.538662 449.526444 
L 413.362386 447.462029 
L 414.109813 444.479007 
L 414.887138 439.342147 
L 416.232508 428.054488 
L 416.680964 426.513741 
L 419.551086 370.986274 
L 419.760366 368.344895 
L 420.567588 367.662343 
L 420.597485 367.722816 
L 423.168636 372.67462 
L 423.497504 373.360604 
L 423.826372 374.349102 
L 423.886166 374.275368 
L 424.663491 373.316827 
L 424.693388 373.383595 
L 425.50061 375.37023 
L 426.188243 379.020492 
L 429.177954 276.67411 
L 429.207851 276.678284 
L 430.164558 278.398454 
L 430.194455 278.278498 
L 431.390339 273.909091 
L 431.629516 273.292515 
L 431.89859 276.695851 
L 431.958384 276.260796 
L 434.649123 256.185426 
L 434.8883 250.461875 
L 434.977992 250.668405 
L 435.516139 251.90758 
L 435.605831 251.856852 
L 436.622332 251.28193 
L 439.940911 194.983589 
L 440.927515 189.637204 
L 441.136795 188.695126 
L 442.601753 245.00267 
L 444.156402 308.433818 
L 444.216197 308.424353 
L 445.11311 308.282378 
L 446.877039 318.561297 
L 450.046132 395.040814 
L 450.763662 399.096013 
L 451.600781 403.645567 
L 452.916254 429.942635 
L 454.680183 461.596259 
L 455.068845 462.850991 
L 455.278125 463.804122 
L 455.63689 464.429583 
L 456.533803 465.272631 
L 456.5637 465.230686 
L 457.101848 463.261003 
L 457.490511 461.171417 
L 458.746189 452.098705 
L 458.925572 450.794582 
L 459.015263 450.879949 
L 459.583308 451.510565 
L 461.10806 457.917816 
L 461.706002 462.903301 
L 462.423533 468.759182 
L 464.426639 470.305137 
L 464.456536 470.239747 
L 464.635918 469.604558 
L 464.815301 467.81969 
L 466.011185 455.531795 
L 467.356555 443.720486 
L 467.894703 439.370474 
L 470.70503 415.047349 
L 471.572046 414.921375 
L 472.140091 415.699571 
L 474.711242 399.153158 
L 475.279287 394.831658 
L 476.026715 392.173632 
L 476.714348 387.117489 
L 477.31229 382.725212 
L 477.342188 382.744502 
L 478.837043 383.794724 
L 479.614367 386.888347 
L 481.64737 402.966272 
L 481.766959 404.48486 
L 481.85665 404.416438 
L 482.514386 403.914676 
L 482.574181 403.998138 
L 483.620579 405.458711 
L 483.680373 405.409862 
L 485.504097 403.919963 
L 486.699981 393.568435 
L 487.088643 393.406959 
L 488.643293 405.261523 
L 489.719588 417.374026 
L 490.31753 423.813968 
L 490.915473 427.300129 
L 492.021665 427.796295 
L 492.410328 427.681062 
L 493.785595 426.729854 
L 495.340244 421.650913 
L 496.386643 421.10026 
L 497.044379 412.604549 
L 498.897999 400.767204 
L 499.376353 398.583094 
L 499.40625 398.721507 
L 501.020694 406.584599 
L 501.499047 410.691686 
L 501.558841 411.183321 
L 501.648533 411.121746 
L 503.382565 409.83797 
L 504.070198 406.786062 
L 504.458861 404.573539 
L 505.864024 394.899784 
L 506.342378 394.43077 
L 507.239291 392.35281 
L 507.568159 391.867651 
L 510.55787 291.618513 
L 510.677458 291.736492 
L 510.946532 292.001945 
L 511.335194 288.637155 
L 511.394989 288.991763 
L 514.055831 305.325105 
L 514.444493 308.328543 
L 514.803258 309.000546 
L 515.490892 310.358502 
L 515.909451 310.37019 
L 519.078544 290.504693 
L 522.098152 280.80577 
L 522.516711 279.266806 
L 524.908479 343.184014 
L 525.41673 352.871327 
L 525.506421 354.002023 
L 525.536319 353.269708 
L 526.164158 340.486016 
L 528.197161 310.294681 
L 528.256955 310.809014 
L 529.064177 316.922589 
L 529.990987 320.178552 
L 530.319855 321.454026 
L 531.156974 329.574772 
L 534.385861 373.111645 
L 534.744627 375.758925 
L 536.448761 385.262012 
L 537.345675 391.411344 
L 539.229192 396.646759 
L 540.215796 404.238363 
L 543.145713 455.826165 
L 543.205507 455.530029 
L 543.743655 452.455331 
L 545.537481 430.068525 
L 547.241616 405.783696 
L 548.796265 389.362758 
L 549.57359 382.184231 
L 550.530297 377.792242 
L 550.590091 378.004869 
L 551.277725 380.799013 
L 552.354021 388.417241 
L 554.297332 408.382786 
L 556.958175 430.270673 
L 557.675705 436.054069 
L 558.572618 439.103933 
L 558.662309 439.576298 
L 561.622123 467.593079 
L 561.980888 467.771367 
L 562.010785 467.703589 
L 562.519036 466.323423 
L 565.688129 433.983615 
L 566.644836 418.399101 
L 568.020103 397.028563 
L 569.245884 384.761923 
L 570.292283 375.942729 
L 573.371684 301.728503 
L 576.182012 193.450044 
L 576.92944 192.778843 
L 576.959337 192.83463 
L 577.437691 193.727224 
L 578.185118 202.041658 
L 578.215015 201.354417 
L 581.174829 130.776528 
L 581.384108 130.829592 
L 581.443902 130.762311 
L 582.699581 127.442637 
L 585.031555 107.119859 
L 585.39032 100.115736 
L 587.991368 69.366573 
L 588.021265 69.74972 
L 588.140854 74.212411 
L 589.366635 121.67133 
L 591.130564 186.261168 
L 591.190358 186.326139 
L 591.7883 190.036357 
L 592.565625 192.528539 
L 592.595522 192.348078 
L 593.13367 188.519644 
L 593.163567 189.335796 
L 595.914101 267.345283 
L 596.242969 275.816958 
L 596.691425 280.673511 
L 599.113091 307.445325 
L 599.980107 314.859067 
L 602.341978 380.311601 
L 602.969817 398.969499 
L 603.029611 398.818082 
L 603.1492 398.515248 
L 603.208994 398.605115 
L 603.747142 399.225434 
L 606.13891 397.793965 
L 606.706955 394.535117 
L 606.736852 394.492985 
L 606.796646 394.570017 
L 607.514177 395.494398 
L 607.843045 400.118064 
L 609.158518 418.778342 
L 610.623476 432.6204 
L 611.879154 435.238698 
L 612.447199 438.434419 
L 613.553392 443.607198 
L 613.643083 443.618878 
L 614.241025 446.563088 
L 614.420408 447.206413 
L 614.450305 447.006324 
L 616.782279 430.740863 
L 617.738986 421.26102 
L 618.187443 419.244633 
L 620.908079 305.478165 
L 621.177153 294.313527 
L 621.266845 294.957774 
L 621.834889 298.321731 
L 622.522523 300.506095 
L 622.911185 292.440136 
L 624.226658 266.854231 
L 627.09678 223.059878 
L 627.365854 222.739113 
L 628.681326 213.416717 
L 629.129783 211.833933 
L 629.36896 211.300006 
L 629.398857 211.496599 
L 632.508155 232.088459 
L 632.627744 232.041602 
L 632.717435 231.912521 
L 633.135995 230.433388 
L 636.125705 335.786863 
L 636.185499 334.97338 
L 637.351486 320.532034 
L 637.471075 319.717392 
L 637.500972 320.095254 
L 638.278296 328.515403 
L 640.879345 340.496394 
L 641.447389 342.896544 
L 641.985537 345.385054 
L 642.015434 345.028022 
L 642.493788 340.48465 
L 643.958746 332.538014 
L 643.988643 332.823974 
L 644.885556 341.083099 
L 645.005145 341.786809 
L 645.094836 341.712543 
L 646.230926 340.771837 
L 647.905164 327.675879 
L 649.220636 321.34468 
L 651.134051 349.896773 
L 652.090758 356.218261 
L 652.18045 356.201658 
L 653.047466 356.041171 
L 654.123761 363.459023 
L 656.216559 366.62176 
L 656.963986 367.011358 
L 658.937195 396.195452 
L 658.996989 396.140402 
L 659.29596 395.86515 
L 659.325857 395.953087 
L 659.654726 397.235028 
L 660.043388 400.057104 
L 660.85061 408.840708 
L 661.209375 409.786515 
L 661.9867 417.206481 
L 662.076391 417.190707 
L 664.169188 416.822641 
L 665.036204 400.269698 
L 665.066101 400.294686 
L 665.90322 400.994356 
L 667.009413 411.056145 
L 667.577458 414.550892 
L 667.607355 414.318153 
L 669.072313 403.722435 
L 670.567168 401.113134 
L 671.912538 416.352083 
L 671.972332 416.162591 
L 672.869245 413.320212 
L 672.958937 413.39326 
L 673.198114 413.588056 
L 673.257908 413.503765 
L 673.497085 413.055906 
L 673.825953 410.910553 
L 674.393998 404.13646 
L 675.081631 392.53269 
L 675.829059 381.585166 
L 676.935252 374.600741 
L 676.995046 374.804487 
L 677.443502 376.682373 
L 678.101239 381.552562 
L 679.506402 405.138645 
L 679.924962 409.332292 
L 679.984756 408.864225 
L 682.047656 384.771893 
L 682.645598 375.746868 
L 684.947675 366.667608 
L 685.00747 366.876028 
L 685.51572 368.647592 
L 685.545617 368.360972 
L 686.113662 362.07704 
L 689.103373 293.853966 
L 689.372447 292.774881 
L 689.492035 292.766519 
L 692.451848 277.723507 
L 692.481745 277.48941 
L 692.54154 277.686664 
L 692.989996 279.166072 
L 693.019893 278.912129 
L 693.528144 275.357556 
L 693.737424 275.170915 
L 694.305469 275.102181 
L 694.484851 276.615308 
L 694.843617 279.598177 
L 696.757031 289.67547 
L 697.295179 297.593136 
L 697.952915 309.562587 
L 700.254992 356.322073 
L 701.032317 368.606362 
L 701.839539 389.914342 
L 702.826143 411.361694 
L 703.99213 421.52419 
L 704.081822 421.363631 
L 704.440587 420.721392 
L 704.470484 420.812431 
L 705.696265 424.833252 
L 706.712767 438.987318 
L 707.60968 454.667765 
L 708.387005 460.378554 
L 708.865358 460.3274 
L 709.343712 457.690059 
L 709.552992 454.591574 
L 709.911757 449.918759 
L 712.423114 419.950287 
L 712.482908 420.21068 
L 712.602496 420.731466 
L 712.66229 420.655297 
L 713.589101 419.34714 
L 715.083956 413.348566 
L 715.412824 411.609558 
L 716.130354 402.735788 
L 716.48912 399.423125 
L 717.62521 391.914373 
L 717.655107 392.175643 
L 718.581917 401.171137 
L 719.68811 413.66073 
L 720.61492 418.402275 
L 720.674714 418.131781 
L 721.54173 413.789645 
L 723.006688 398.043199 
L 723.993293 391.695845 
L 724.172675 390.867609 
L 724.381955 389.168358 
L 724.471646 389.209613 
L 726.235575 390.020945 
L 726.265473 389.919402 
L 727.371665 386.162314 
L 728.14899 368.780986 
L 729.673742 331.076282 
L 730.690244 309.08404 
L 730.839729 306.465838 
L 730.929421 306.690558 
L 731.377877 308.277763 
L 731.407774 308.056951 
L 732.812938 297.120535 
L 733.769646 279.330224 
L 734.75625 261.339026 
L 735.653163 248.1817 
L 738.433594 205.677624 
L 738.88205 203.365595 
L 738.941845 203.515318 
L 739.09133 204.046693 
L 740.915053 218.987594 
L 741.214024 223.170059 
L 741.692378 233.04959 
L 741.722275 232.485321 
L 743.097542 208.609096 
L 744.682088 189.727628 
L 744.711986 190.295908 
L 745.788281 208.791948 
L 746.057355 207.680088 
L 746.326429 206.475507 
L 746.356326 206.66829 
L 747.76149 216.287359 
L 748.090358 222.976166 
L 748.987271 245.509712 
L 750.721303 275.623773 
L 752.216159 306.295347 
L 753.292454 330.072635 
L 753.950191 336.822505 
L 755.116178 341.895761 
L 756.102782 349.740216 
L 756.22237 349.809876 
L 756.581136 349.701972 
L 756.64093 349.630416 
L 758.075991 400.516457 
L 759.63064 438.681804 
L 759.690434 438.300634 
L 760.198685 435.7147 
L 760.76673 433.474277 
L 760.796627 433.760635 
L 762.082203 446.098448 
L 763.188396 405.592625 
L 764.115206 367.871089 
L 765.191502 334.660734 
L 766.387386 329.266202 
L 766.44718 329.43566 
L 766.865739 330.289529 
L 766.895636 330.300239 
L 767.224505 328.957215 
L 770.124524 319.005294 
L 770.901848 312.889464 
L 771.469893 308.449298 
L 772.247218 303.798722 
L 772.755469 306.508745 
L 774.100838 329.112767 
L 775.715282 348.400567 
L 775.864768 348.143387 
L 777.030755 333.921834 
L 777.060652 334.847833 
L 779.153449 403.032722 
L 780.16995 441.527073 
L 781.007069 450.764954 
L 781.335937 453.116218 
L 781.425629 453.040495 
L 782.412233 449.293629 
L 783.727706 444.258322 
L 785.312252 433.801749 
L 786.567931 424.499061 
L 786.657622 424.627803 
L 787.19577 425.400258 
L 787.554535 421.46592 
L 789.079287 392.190054 
L 790.633937 370.52515 
L 790.903011 368.591901 
L 793.414367 368.145229 
L 793.80303 368.658556 
L 794.580354 361.945671 
L 795.058708 361.090977 
L 795.836033 356.938384 
L 796.374181 356.598879 
L 798.048418 362.455128 
L 798.825743 369.991896 
L 801.516482 378.227006 
L 801.54638 378.054101 
L 801.636071 377.535385 
L 801.695865 377.757542 
L 802.47319 380.99248 
L 803.669074 397.686543 
L 805.731974 417.370795 
L 806.449505 422.701306 
L 807.466006 436.324621 
L 807.645389 437.942411 
L 809.648495 356.129539 
L 810.635099 311.084808 
L 810.664996 311.200168 
L 810.874276 312.376966 
L 811.292835 314.587417 
L 812.219646 315.623217 
L 813.026867 309.968185 
L 813.714501 301.487635 
L 815.209356 296.328375 
L 815.26915 296.494023 
L 816.584623 300.138273 
L 816.61452 299.937112 
L 816.943388 298.370248 
L 818.288758 295.176911 
L 818.318655 295.237264 
L 821.009394 314.017668 
L 821.517645 304.170305 
L 822.593941 280.325557 
L 824.208384 330.582684 
L 825.583651 385.471875 
L 825.673342 384.750623 
L 825.972313 381.51557 
L 826.331079 378.74259 
L 827.168197 374.467803 
L 827.198095 374.614891 
L 827.257889 374.909067 
L 827.287786 374.53843 
L 830.247599 337.287276 
L 830.367187 337.60729 
L 830.905335 339.323716 
L 831.742454 344.708115 
L 833.237309 344.606027 
L 833.984737 340.911425 
L 835.957946 307.880708 
L 835.987843 308.071361 
L 837.004345 315.235327 
L 837.482698 325.670441 
L 839.067245 361.660076 
L 840.293026 374.336516 
L 842.266235 389.261319 
L 843.701296 423.119495 
L 844.568312 443.387004 
L 845.196151 454.765577 
L 845.285842 454.481137 
L 845.853887 452.403319 
L 846.720903 446.461847 
L 847.318845 443.995454 
L 848.903392 448.044337 
L 850.248761 467.052263 
L 851.893102 470.419493 
L 852.281764 465.818618 
L 853.118883 450.876971 
L 854.763224 422.901206 
L 855.809623 409.617596 
L 857.154992 395.048912 
L 858.201391 392.87511 
L 858.799333 388.85983 
L 859.03851 386.559649 
L 859.427172 381.263982 
L 862.117912 354.39205 
L 862.267397 353.492503 
L 863.074619 345.995893 
L 863.822046 340.878388 
L 864.539577 340.948638 
L 865.107622 341.056548 
L 866.78186 361.595008 
L 867.589082 366.688899 
L 870.010747 386.854918 
L 871.924162 408.271277 
L 871.954059 408.212059 
L 871.983956 408.152841 
L 873.927268 385.231819 
L 874.016959 385.276073 
L 874.913872 385.718615 
L 875.392226 388.925433 
L 875.45202 389.798604 
L 875.541711 389.618416 
L 876.946875 386.589019 
L 877.933479 376.862095 
L 878.44173 370.890825 
L 878.531421 370.943862 
L 878.65101 371.014579 
L 878.680907 370.93409 
L 881.281955 352.810944 
L 881.610823 351.452826 
L 881.730412 351.086822 
L 881.760309 351.180865 
L 884.062386 358.771517 
L 884.989196 366.164247 
L 885.318064 367.974288 
L 885.377858 367.823281 
L 886.364463 365.331668 
L 886.992302 358.007121 
L 889.354173 355.531416 
L 889.862424 361.586135 
L 889.892321 361.573626 
L 890.280983 361.41101 
L 890.400572 360.281389 
L 890.460366 360.709875 
L 892.79234 377.989763 
L 893.539768 388.612923 
L 894.317092 391.562781 
L 894.526372 391.976032 
L 894.556269 391.880328 
L 896.469684 385.40366 
L 897.516082 378.977439 
L 897.575877 379.155691 
L 898.951143 383.255504 
L 899.010937 383.084407 
L 899.280011 382.004692 
L 900.266616 376.706374 
L 900.445998 376.757493 
L 901.313014 377.004567 
L 902.000648 383.921299 
L 904.302725 399.025399 
L 904.332622 398.767372 
L 904.691387 395.671043 
L 904.751181 395.721824 
L 907.621303 433.509035 
L 907.800686 434.537224 
L 908.876982 437.292727 
L 908.966673 437.221922 
L 909.086261 437.127515 
L 909.146056 437.221804 
L 909.504821 437.942279 
L 912.464634 457.566958 
L 912.494531 457.482706 
L 912.703811 456.644869 
L 914.437843 445.310144 
L 915.245065 441.87119 
L 915.633727 441.061216 
L 915.663624 441.172844 
L 916.590434 444.227237 
L 916.73992 444.78953 
L 919.370865 466.867664 
L 919.789425 471.171986 
L 920.596646 471.323683 
L 921.254383 468.406524 
L 922.659546 441.470501 
L 925.2008 339.601678 
L 925.61936 326.845976 
L 926.277096 326.128896 
L 927.622466 319.043971 
L 929.236909 317.268227 
L 929.266806 317.390148 
L 930.582279 322.86545 
L 930.67197 322.792497 
L 931.269912 322.431095 
L 931.957546 322.647386 
L 932.704973 324.431354 
L 933.482298 329.947852 
L 934.28952 334.809014 
L 934.797771 335.593545 
L 935.575095 336.323464 
L 936.202934 339.728614 
L 937.27923 358.531837 
L 937.48851 358.946153 
L 940.47822 440.92197 
L 940.567912 440.11405 
L 941.375133 433.708512 
L 943.019474 427.215663 
L 944.215358 427.253054 
L 945.799905 419.018486 
L 945.919493 419.34336 
L 946.188567 420.074328 
L 946.218464 419.886714 
L 947.234966 412.822428 
L 947.773114 407.541736 
L 949.626734 384.800597 
L 952.048399 364.013562 
L 952.197885 363.148319 
L 952.227782 363.439639 
L 952.855621 368.4799 
L 955.695846 387.552077 
L 957.997923 416.003587 
L 958.02782 416.020455 
L 960.897942 369.066993 
L 961.01753 366.132205 
L 961.107222 366.211093 
L 961.137119 366.237389 
L 961.286604 367.71303 
L 961.376296 367.576877 
L 964.186623 363.142227 
L 964.4258 362.533072 
L 964.485595 362.444976 
L 964.934051 364.784383 
L 967.206231 368.962447 
L 967.236128 368.973978 
L 969.657793 219.081492 
L 970.225838 184.105334 
L 970.31553 185.107893 
L 970.614501 187.28865 
L 971.45162 190.517684 
L 971.660899 191.469446 
L 972.976372 171.873945 
L 973.006269 172.137627 
L 975.069169 191.307332 
L 975.966082 201.308512 
L 975.995979 200.881891 
L 976.354745 197.124494 
L 977.132069 194.885688 
L 977.191864 195.025078 
L 978.746513 198.378734 
L 979.224867 199.012996 
L 979.284661 198.921101 
L 979.434146 198.691362 
L 980.331059 190.871748 
L 982.035194 178.01817 
L 982.18468 175.293507 
L 982.214577 176.698907 
L 985.17439 319.105275 
L 985.293979 317.896317 
L 986.609451 303.985764 
L 986.699143 304.783569 
L 987.147599 309.655203 
L 988.851734 339.659104 
L 990.167207 354.515565 
L 990.43628 357.198012 
L 990.496075 356.963908 
L 992.140415 350.214439 
L 993.425991 338.481675 
L 993.455888 338.730932 
L 994.023933 343.466825 
L 996.027039 282.499844 
L 997.013643 253.886145 
L 997.04354 254.323209 
L 999.614691 290.305371 
L 999.913662 294.269965 
L 1000.003354 294.057151 
L 1002.00646 289.304309 
L 1002.51471 281.944171 
L 1002.993064 270.472375 
L 1004.009566 242.492007 
L 1005.564215 207.191447 
L 1005.803392 204.698234 
L 1005.833289 205.101025 
L 1006.491025 212.579739 
L 1008.374543 225.511457 
L 1008.40444 225.224663 
L 1008.972485 219.775586 
L 1011.842607 312.04552 
L 1011.962195 315.903849 
L 1012.051886 315.788014 
L 1012.291063 315.479121 
L 1012.350857 315.534437 
L 1012.799314 316.089541 
L 1013.935404 318.139159 
L 1014.80242 322.687538 
L 1016.297275 329.240622 
L 1016.476658 329.991147 
L 1016.536452 329.837118 
L 1017.313777 327.834741 
L 1017.343674 327.988274 
L 1017.881822 331.167625 
L 1021.110709 365.760447 
L 1021.290091 367.048332 
L 1022.007622 374.34927 
L 1024.249905 374.94901 
L 1024.907641 374.294375 
L 1024.937538 374.388279 
L 1025.625171 376.548079 
L 1028.01694 337.452444 
L 1028.73447 326.595083 
L 1028.883956 326.248597 
L 1029.481898 323.292721 
L 1030.438605 322.265747 
L 1030.468502 322.309418 
L 1031.156136 323.508131 
L 1031.455107 324.63263 
L 1032.949962 338.469473 
L 1035.640701 344.11522 
L 1035.969569 340.667547 
L 1036.866482 337.914612 
L 1036.89638 338.159849 
L 1037.584013 342.958853 
L 1039.856193 348.806894 
L 1039.915987 348.713469 
L 1040.424238 347.919354 
L 1040.454135 347.993902 
L 1040.573723 348.292094 
L 1043.772713 414.291126 
L 1044.01189 415.619157 
L 1044.041787 415.191001 
L 1044.908803 401.227627 
L 1046.164482 377.738534 
L 1048.137691 338.7274 
L 1049.841825 320.48141 
L 1049.871723 320.89849 
L 1050.888224 333.736393 
L 1051.336681 334.320978 
L 1051.366578 334.255074 
L 1051.994417 332.871107 
L 1052.711947 322.685553 
L 1055.16351 296.53789 
L 1055.492378 294.547118 
L 1055.88104 292.022789 
L 1056.09032 291.698008 
L 1056.927439 291.35305 
L 1057.106822 290.923794 
L 1057.674867 290.443732 
L 1057.704764 290.530439 
L 1058.033632 291.820151 
L 1058.302706 292.567421 
L 1058.960442 293.343964 
L 1060.186223 317.054792 
L 1061.591387 333.173414 
L 1062.009947 335.621635 
L 1064.461509 353.47444 
L 1064.909966 361.567944 
L 1065.268731 362.565825 
L 1065.328525 362.429093 
L 1066.285232 360.241373 
L 1066.345027 360.314392 
L 1066.82338 360.89854 
L 1066.853277 360.834737 
L 1066.942969 360.643326 
L 1070.799695 408.557888 
L 1070.859489 408.311595 
L 1071.068769 407.03364 
L 1072.802801 394.394508 
L 1073.460537 387.448804 
L 1074.895598 375.595106 
L 1075.70282 376.164607 
L 1076.659527 360.371084 
L 1078.69253 338.016434 
L 1078.722428 338.307475 
L 1079.380164 344.710392 
L 1079.439958 344.304796 
L 1080.008003 341.118643 
L 1080.217283 340.599099 
L 1080.24718 340.695488 
L 1081.831726 353.852193 
L 1082.579154 362.824089 
L 1083.505964 366.366334 
L 1083.595655 366.338596 
L 1083.625553 366.32935 
L 1084.881231 356.673635 
L 1085.837938 344.800167 
L 1086.615263 342.752882 
L 1086.824543 344.21307 
L 1087.57197 348.5542 
L 1087.601867 348.214248 
L 1090.202915 317.370661 
L 1090.651372 312.821617 
L 1093.431803 363.609906 
L 1093.760671 369.819321 
L 1094.627687 374.134125 
L 1094.687481 374.297835 
L 1094.717378 374.19077 
L 1095.165835 372.203544 
L 1095.345217 370.440145 
L 1096.810175 353.837365 
L 1097.647294 334.982364 
L 1098.663796 320.618683 
L 1099.769989 315.424384 
L 1099.799886 315.786839 
L 1101.563815 336.455139 
L 1101.593712 336.298768 
L 1102.520522 339.036118 
L 1104.732908 385.779552 
L 1105.689615 407.943258 
L 1106.616425 419.352599 
L 1107.60303 423.674395 
L 1108.380354 426.141805 
L 1108.410252 426.02466 
L 1109.45665 422.189271 
L 1110.891711 433.063119 
L 1111.72883 434.060206 
L 1114.240187 469.387946 
L 1114.808232 477.858731 
L 1115.34638 478.39669 
L 1115.465968 478.66009 
L 1118.605164 445.603513 
L 1119.2629 443.343142 
L 1119.890739 435.053396 
L 1121.056726 418.399767 
L 1121.564977 412.760931 
L 1123.209318 404.007308 
L 1124.464996 396.729875 
L 1124.883556 392.219085 
L 1125.840263 387.347684 
L 1125.929954 387.460804 
L 1126.587691 388.438417 
L 1126.767073 388.960784 
L 1126.856764 388.893113 
L 1128.85987 387.259687 
L 1129.756784 382.919928 
L 1129.816578 383.145426 
L 1130.145446 383.95326 
L 1130.354726 384.186844 
L 1130.41452 384.224671 
L 1131.789787 402.792808 
L 1133.40423 411.798745 
L 1133.464024 411.57217 
L 1134.181555 408.853268 
L 1134.211452 408.985996 
L 1134.630011 411.123045 
L 1136.274352 432.437261 
L 1137.619722 436.996222 
L 1139.114577 442.491526 
L 1139.772313 449.156009 
L 1139.832107 449.243223 
L 1139.862005 449.187123 
L 1141.087786 446.757912 
L 1142.253773 440.176381 
L 1144.645541 430.659976 
L 1144.735232 430.099369 
L 1145.69194 419.92542 
L 1148.861033 385.334387 
L 1149.458975 378.939611 
L 1149.518769 379.254429 
L 1149.548666 379.411838 
L 1149.60846 379.168924 
L 1149.847637 378.611413 
L 1150.505373 377.24883 
L 1151.043521 375.928727 
L 1151.820846 383.504715 
L 1151.910537 382.870696 
L 1153.375495 371.860436 
L 1154.242511 354.472435 
L 1155.259013 330.498057 
L 1155.70747 318.707686 
L 1157.022942 270.881604 
L 1158.577591 215.885374 
L 1158.667283 216.287509 
L 1158.876562 217.545531 
L 1159.564196 226.321743 
L 1161.477611 237.830729 
L 1163.24154 262.919619 
L 1164.407527 265.652946 
L 1165.244646 252.805674 
L 1166.291044 237.76563 
L 1166.769398 232.726574 
L 1166.829192 233.13424 
L 1167.457031 237.41473 
L 1167.516825 237.191086 
L 1168.264253 234.395537 
L 1168.29415 234.611022 
L 1170.476639 250.894052 
L 1170.685918 259.002363 
L 1171.672523 297.706209 
L 1173.04779 335.627388 
L 1173.526143 344.523221 
L 1173.55604 343.887546 
L 1174.004497 332.114462 
L 1174.781822 310.809774 
L 1175.768426 287.819413 
L 1175.858117 288.168776 
L 1175.977706 288.984942 
L 1176.336471 291.837445 
L 1178.429268 206.97201 
L 1179.326181 180.067367 
L 1179.385976 180.995106 
L 1180.940625 203.529026 
L 1181.149905 204.77099 
L 1182.43548 210.223373 
L 1184.259204 238.333587 
L 1185.096322 255.30361 
L 1185.395293 259.811889 
L 1185.425191 259.45703 
L 1186.292207 249.166104 
L 1186.381898 249.375871 
L 1187.757165 252.85826 
L 1190.716978 293.574089 
L 1190.806669 292.429647 
L 1191.165434 286.512233 
L 1191.285023 284.520554 
L 1191.31492 285.220188 
L 1194.274733 354.483957 
L 1194.364425 354.02978 
L 1195.65 347.974907 
L 1197.085061 347.501704 
L 1197.204649 348.248294 
L 1197.294341 348.112672 
L 1198.63971 345.891406 
L 1199.207755 343.456669 
L 1199.7758 337.696976 
L 1200.254154 333.949441 
L 1200.313948 334.204177 
L 1202.25726 342.901469 
L 1203.333556 349.546641 
L 1205.366559 361.089416 
L 1205.516044 362.250332 
L 1206.353163 370.928416 
L 1209.522256 402.142528 
L 1211.914024 411.805023 
L 1212.033613 412.460418 
L 1212.123304 412.362447 
L 1212.153201 412.32979 
L 1213.528468 420.776079 
L 1214.275896 424.362888 
L 1215.113014 429.686945 
L 1215.142912 429.473453 
L 1217.355297 412.912167 
L 1218.132622 406.258579 
L 1219.059432 405.883371 
L 1220.464596 398.907008 
L 1221.241921 391.054806 
L 1224.022351 383.883372 
L 1224.052248 384.0414 
L 1224.082146 384.199429 
L 1224.112043 384.073678 
L 1224.949162 379.496318 
L 1225.038853 379.612547 
L 1226.832679 382.100268 
L 1227.101753 382.958919 
L 1227.908975 385.944384 
L 1228.05846 386.751451 
L 1228.925476 391.878103 
L 1230.061566 391.878399 
L 1230.988377 402.9871 
L 1233.051277 408.11505 
L 1233.081174 407.93791 
L 1233.978087 402.623711 
L 1234.037881 402.770994 
L 1236.070884 412.395047 
L 1238.612138 450.874497 
L 1239.0008 455.450657 
L 1239.060595 455.348886 
L 1239.927611 453.670983 
L 1241.930716 435.767719 
L 1242.40907 430.900024 
L 1242.797732 428.124469 
L 1243.784337 422.096159 
L 1245.578163 426.700267 
L 1245.996723 429.491091 
L 1246.325591 432.574591 
L 1249.046227 453.204208 
L 1249.106021 453.441331 
L 1249.793655 457.25192 
L 1251.019436 457.608476 
L 1252.813262 444.466192 
L 1253.35141 442.62489 
L 1253.949352 441.885974 
L 1253.979249 442.033119 
L 1254.935957 446.274007 
L 1255.354516 446.696831 
L 1257.297828 424.301894 
L 1257.925667 413.789401 
L 1258.433918 406.503199 
L 1258.583403 406.382249 
L 1259.390625 404.161684 
L 1261.543216 349.364988 
L 1262.679306 327.376569 
L 1264.114367 310.535706 
L 1264.652515 308.321391 
L 1264.712309 308.436413 
L 1264.951486 309.055428 
L 1265.997885 315.833364 
L 1266.715415 319.555772 
L 1266.805107 319.488594 
L 1267.672123 318.738706 
L 1268.598933 314.981683 
L 1270.512348 226.115766 
L 1271.588643 190.120033 
L 1271.678335 190.814697 
L 1273.292778 203.31866 
L 1273.322675 203.042384 
L 1273.980412 197.852514 
L 1274.339177 196.390218 
L 1274.757736 202.609544 
L 1277.657755 246.15289 
L 1278.943331 268.811839 
L 1279.870141 271.296613 
L 1279.929935 271.139068 
L 1280.737157 269.301239 
L 1281.663967 268.271021 
L 1283.487691 277.070897 
L 1283.547485 276.910956 
L 1286.028944 378.370568 
L 1286.537195 397.615546 
L 1286.626886 397.31741 
L 1288.061947 392.547227 
L 1288.689787 398.679666 
L 1288.749581 398.821831 
L 1288.779478 398.744878 
L 1289.317626 397.359728 
L 1289.347523 397.44268 
L 1291.619703 404.042659 
L 1292.307336 409.349994 
L 1292.36713 409.027616 
L 1293.473323 403.669382 
L 1294.729002 401.509271 
L 1296.492931 394.138544 
L 1297.8383 389.257113 
L 1298.436242 388.480704 
L 1298.705316 390.280523 
L 1298.735213 390.086284 
L 1300.140377 381.545207 
L 1301.695027 379.090665 
L 1303.010499 394.582219 
L 1303.070293 394.331785 
L 1303.51875 392.453529 
L 1303.548647 392.601237 
L 1304.744531 398.509524 
L 1304.834223 398.487637 
L 1306.239386 398.144741 
L 1306.92702 382.766092 
L 1310.036319 309.88817 
L 1312.248704 270.334113 
L 1312.278601 270.300536 
L 1313.175514 258.085244 
L 1313.773457 250.541919 
L 1315.268312 247.452346 
L 1316.434299 261.441488 
L 1316.643579 262.390312 
L 1316.673476 262.119039 
L 1318.437405 247.108675 
L 1319.424009 240.37532 
L 1319.573495 240.077056 
L 1319.603392 240.187916 
L 1319.752877 241.052223 
L 1320.470408 248.322061 
L 1321.337424 261.166052 
L 1322.92197 306.033796 
L 1324.98487 357.49969 
L 1325.792092 378.364059 
L 1327.526124 421.180592 
L 1330.396246 483.573123 
L 1330.515835 484.35635 
L 1330.575629 484.06313 
L 1331.233365 480.837707 
L 1331.293159 481.056418 
L 1333.535442 489.595666 
L 1334.133384 496.959705 
L 1334.432355 499.113501 
L 1334.522046 499.606485 
L 1334.611738 499.587931 
L 1335.20968 499.464233 
L 1335.807622 497.306492 
L 1337.0633 494.371072 
L 1337.960213 496.421431 
L 1337.990111 496.347816 
L 1339.514863 492.334799 
L 1339.783937 488.265492 
L 1341.488072 402.682138 
L 1342.982927 331.622404 
L 1345.583975 274.443908 
L 1347.886052 273.872196 
L 1348.454097 276.41595 
L 1348.483994 276.212265 
L 1348.842759 274.443076 
L 1351.234527 266.788779 
L 1352.101543 263.521909 
L 1352.908765 260.158506 
L 1352.998457 260.210675 
L 1353.89537 264.528874 
L 1354.493312 268.143111 
L 1354.732489 271.974238 
L 1357.034566 376.567479 
L 1357.692302 389.991775 
L 1357.752096 389.381488 
L 1360.024276 366.190585 
L 1360.054173 366.742251 
L 1360.622218 375.383079 
L 1361.698514 383.338795 
L 1362.954192 389.047477 
L 1364.41915 389.443013 
L 1364.927401 393.146044 
L 1366.392359 401.333926 
L 1368.0367 406.655277 
L 1368.485156 406.437601 
L 1369.322275 405.510689 
L 1369.710938 395.025845 
L 1369.710938 395.025845 
" clip-path="url(#pd81107b9ed)" style="fill: none; stroke: #4c72b0; stroke-width: 1.5; stroke-linecap: round"/>
   </g>
   <g id="line2d_12">
    <path d="M 143.929687 623.70146 
L 144.168864 624.214147 
L 144.946189 625.261572 
L 146.740015 625.078276 
L 147.786414 624.375697 
L 148.65343 623.402858 
L 150.208079 620.433101 
L 150.387462 620.014968 
L 150.447256 620.070722 
L 150.806021 620.456484 
L 150.835918 620.375387 
L 152.091597 616.96932 
L 152.121494 617.15224 
L 154.064806 629.706143 
L 154.244188 630.324013 
L 154.872027 631.840909 
L 154.901925 631.735437 
L 155.081307 630.778241 
L 156.456574 613.844907 
L 158.399886 589.278938 
L 158.698857 587.339463 
L 159.80505 582.341043 
L 161.240111 580.864222 
L 162.675171 577.686249 
L 165.814367 559.669002 
L 167.697885 558.425783 
L 168.594798 555.548044 
L 168.923666 553.725317 
L 169.162843 552.869278 
L 169.820579 552.544356 
L 170.11955 554.741352 
L 172.780393 577.354806 
L 173.079364 579.066605 
L 173.438129 580.547575 
L 173.557717 580.512184 
L 174.364939 580.198687 
L 174.604116 579.268983 
L 176.487633 567.455756 
L 178.580431 489.145885 
L 179.716521 452.747365 
L 181.958803 402.835427 
L 182.825819 385.251096 
L 184.320675 367.743459 
L 184.769131 362.68447 
L 184.828925 362.877061 
L 186.891825 369.148491 
L 187.041311 369.536732 
L 187.131002 369.50086 
L 187.87843 369.11088 
L 188.655755 366.03573 
L 189.462976 363.016524 
L 191.107317 361.71236 
L 191.436185 362.007362 
L 192.392893 397.884521 
L 192.960938 415.369181 
L 194.605278 457.571313 
L 196.518693 484.558282 
L 197.744474 501.284104 
L 198.432107 506.742833 
L 199.717683 518.009538 
L 199.777477 517.666449 
L 200.913567 511.147746 
L 200.973361 511.374256 
L 201.930069 514.99841 
L 201.959966 514.819132 
L 202.199143 514.012145 
L 203.963072 508.72146 
L 207.49093 436.953803 
L 207.520827 436.677299 
L 207.610518 436.812898 
L 209.673418 439.931682 
L 210.420846 445.389374 
L 210.570332 445.330141 
L 212.54354 442.740703 
L 213.709527 426.885318 
L 215.533251 400.75408 
L 215.622942 400.944324 
L 215.862119 401.451642 
L 216.87862 393.924557 
L 216.938415 394.066852 
L 217.0879 394.180899 
L 218.911623 394.835102 
L 219.300286 399.920113 
L 222.080716 430.700112 
L 222.319893 431.663522 
L 224.651867 426.609723 
L 225.309604 421.044447 
L 225.369398 421.098487 
L 227.10343 422.665633 
L 227.551886 426.735063 
L 229.883861 468.294344 
L 230.152934 471.317317 
L 230.481803 473.402801 
L 230.5117 473.100595 
L 232.455011 454.544811 
L 233.142645 449.790846 
L 233.381822 449.147852 
L 234.338529 427.340408 
L 236.371532 389.222884 
L 236.431326 389.49699 
L 236.939577 391.826888 
L 237.029268 391.748955 
L 237.268445 391.541133 
L 237.298342 391.596853 
L 238.344741 393.547048 
L 241.214863 349.606768 
L 241.45404 347.301044 
L 242.081879 345.31314 
L 244.084985 327.267258 
L 244.952001 327.961348 
L 246.028296 339.35799 
L 247.941711 345.022957 
L 248.001505 344.877169 
L 248.330373 344.075339 
L 249.077801 361.505953 
L 251.589158 432.426148 
L 252.814939 441.050277 
L 253.293293 441.344919 
L 254.907736 467.300527 
L 256.283003 468.914859 
L 257.957241 449.426227 
L 259.063434 444.978625 
L 260.050038 433.732466 
L 260.797466 427.273844 
L 260.917054 427.342412 
L 261.245922 427.530973 
L 261.843864 432.012222 
L 263.787176 443.590025 
L 263.84697 443.407093 
L 264.534604 441.303367 
L 264.624295 441.35811 
L 265.042854 441.613576 
L 266.567607 434.745904 
L 266.866578 430.105965 
L 267.883079 414.992422 
L 269.766597 397.928696 
L 271.7996 415.919651 
L 272.965587 433.468852 
L 274.281059 444.803152 
L 274.938796 450.679045 
L 275.387252 452.726349 
L 275.865606 454.080566 
L 275.895503 453.933995 
L 276.254268 451.669421 
L 276.971799 443.55317 
L 279.423361 419.458094 
L 279.632641 416.929493 
L 280.290377 409.442288 
L 281.486261 399.783456 
L 281.60585 400.237006 
L 283.907927 417.069088 
L 284.715149 418.845387 
L 286.65846 420.164923 
L 287.047123 418.059935 
L 288.721361 410.491719 
L 288.960537 409.966402 
L 290.246113 405.029425 
L 290.814158 404.523247 
L 292.368807 415.908089 
L 293.564691 426.054654 
L 294.730678 443.834704 
L 295.657489 455.957257 
L 295.986357 458.79799 
L 296.285328 459.087194 
L 296.315225 458.994196 
L 298.706993 451.554348 
L 298.766787 451.673083 
L 298.94617 452.268771 
L 301.367835 464.06366 
L 301.816292 466.701429 
L 304.267854 410.407424 
L 305.104973 392.015275 
L 307.61633 350.555078 
L 307.765816 350.879286 
L 308.393655 352.277322 
L 308.453449 352.373058 
L 308.483346 352.227668 
L 310.127687 342.441638 
L 310.81532 339.274435 
L 310.845217 339.497103 
L 311.592645 344.239878 
L 314.01431 357.546068 
L 316.734947 323.204003 
L 316.764844 322.714084 
L 316.824638 323.422303 
L 319.963834 361.852893 
L 321.159718 379.212177 
L 321.219512 378.642643 
L 322.594779 364.969457 
L 324.149428 319.591666 
L 324.269017 319.67183 
L 325.106136 320.605842 
L 326.600991 308.994719 
L 328.095846 299.031447 
L 328.15564 299.206527 
L 328.962862 301.57011 
L 331.98247 354.450685 
L 334.703106 367.400116 
L 334.7629 367.214107 
L 334.882489 366.84209 
L 334.942283 367.013559 
L 335.510328 368.956203 
L 335.928887 371.481272 
L 336.10827 372.501229 
L 339.277363 464.006707 
L 339.815511 465.711525 
L 339.845408 465.592146 
L 340.054688 464.756493 
L 340.084585 464.921233 
L 343.044398 481.454491 
L 343.134089 481.172315 
L 343.403163 480.37352 
L 343.43306 480.448161 
L 343.492854 480.597444 
L 346.392873 447.753479 
L 346.602153 446.289081 
L 346.661947 446.118269 
L 348.246494 463.627352 
L 349.860937 479.986243 
L 350.070217 480.208433 
L 350.100114 480.140105 
L 350.428982 479.231654 
L 350.847542 476.877694 
L 353.388796 464.475999 
L 353.598075 463.52705 
L 354.764062 455.751813 
L 354.853754 455.795991 
L 354.973342 455.854895 
L 357.99295 406.684194 
L 358.082641 406.775664 
L 358.351715 407.002343 
L 358.441406 406.587714 
L 358.471303 406.850361 
L 361.40122 433.55687 
L 361.550705 434.060092 
L 362.208441 435.177224 
L 363.284737 438.252184 
L 364.151753 441.780496 
L 365.048666 442.800962 
L 366.184756 447.769439 
L 366.214653 447.590149 
L 368.367245 434.048262 
L 369.413643 426.34225 
L 369.921894 423.975805 
L 369.951791 424.339032 
L 371.087881 439.454775 
L 372.941502 468.624436 
L 373.031193 468.427857 
L 373.718826 467.15237 
L 375.243579 467.748092 
L 377.007508 425.024765 
L 378.502363 389.761151 
L 379.010614 390.045031 
L 379.518864 391.995319 
L 379.608556 391.934116 
L 381.133308 390.893674 
L 382.986928 409.915715 
L 384.691063 430.312335 
L 386.634375 449.145049 
L 387.949848 457.819835 
L 387.979745 457.64473 
L 388.816864 452.124139 
L 390.19213 440.517788 
L 390.222027 440.959131 
L 391.148838 456.199608 
L 392.434413 482.294381 
L 393.361223 498.6985 
L 393.450915 499.453853 
L 393.480812 499.229477 
L 394.467416 492.660259 
L 394.676696 493.467255 
L 398.35404 453.510106 
L 399.191159 450.642777 
L 399.28085 450.785218 
L 400.20766 452.25711 
L 400.297351 452.191561 
L 400.984985 451.689019 
L 401.493236 449.393647 
L 402.121075 446.842136 
L 402.898399 442.267228 
L 402.928296 442.459883 
L 404.602534 452.525595 
L 405.88811 460.032557 
L 405.947904 459.936329 
L 406.306669 459.358959 
L 406.396361 459.419518 
L 407.113891 464.916095 
L 408.130393 473.376744 
L 409.415968 483.182252 
L 409.625248 483.488245 
L 411.508765 512.773263 
L 412.345884 521.045189 
L 412.614958 521.196325 
L 413.392283 517.035023 
L 414.319093 506.261525 
L 415.395389 490.298196 
L 415.634566 488.63302 
L 416.322199 478.353259 
L 417.488186 464.781974 
L 418.743864 452.780019 
L 419.999543 447.03644 
L 421.434604 439.282604 
L 422.30162 428.565756 
L 424.185137 403.425966 
L 424.962462 389.898855 
L 426.487214 364.384798 
L 427.324333 355.150609 
L 427.35423 355.088304 
L 427.384127 355.161099 
L 428.639806 358.390991 
L 430.194455 371.146924 
L 430.254249 371.028624 
L 430.55322 370.228384 
L 431.539825 380.800758 
L 433.154268 405.99954 
L 433.692416 409.453555 
L 434.260461 410.79735 
L 435.516139 400.981469 
L 437.250171 387.563749 
L 437.280069 387.773533 
L 438.834718 399.376412 
L 439.821322 413.858643 
L 442.362576 454.323073 
L 442.392473 453.956524 
L 443.76774 435.887681 
L 445.441978 407.206693 
L 446.338891 406.099031 
L 447.89354 393.132373 
L 447.983232 393.170696 
L 448.162614 393.361118 
L 449.23891 398.243907 
L 450.853354 424.413334 
L 451.810061 440.527138 
L 452.198723 445.016001 
L 452.258518 444.824348 
L 453.693579 439.977244 
L 454.082241 434.384668 
L 456.77298 395.622595 
L 457.311128 395.137999 
L 459.912176 456.187645 
L 460.450324 466.564935 
L 461.10806 470.480076 
L 463.081269 476.420082 
L 463.17096 476.348754 
L 464.127668 475.724395 
L 464.994684 475.370837 
L 465.413243 474.299649 
L 466.489539 468.090192 
L 466.549333 468.185596 
L 468.223571 471.061512 
L 468.64213 472.263222 
L 469.688529 484.297945 
L 470.495751 496.038609 
L 471.362767 504.856252 
L 471.482355 505.581996 
L 471.542149 505.388225 
L 471.601944 505.194455 
L 474.412271 455.773444 
L 474.472066 454.675451 
L 474.561757 454.779123 
L 475.787538 456.119989 
L 475.817435 456.029436 
L 475.847332 456.187854 
L 475.907127 456.504689 
L 475.996818 456.455534 
L 478.896837 454.820667 
L 478.926734 454.957511 
L 480.182412 461.224036 
L 480.541178 462.845235 
L 481.109223 465.072345 
L 481.198914 465.000638 
L 483.052534 463.39594 
L 484.427801 461.553215 
L 484.457698 461.52685 
L 485.085537 457.788917 
L 485.115434 457.720765 
L 485.145332 457.807469 
L 485.862862 460.228946 
L 486.19173 462.202793 
L 486.520598 466.304695 
L 487.985556 492.413158 
L 489.420617 517.172993 
L 489.510309 516.96982 
L 489.629897 516.674599 
L 491.094855 498.408788 
L 492.619607 486.856881 
L 492.709299 486.993959 
L 493.845389 488.730274 
L 493.875286 488.607572 
L 494.084566 488.143422 
L 494.652611 487.55094 
L 495.220655 486.835819 
L 495.28045 486.903611 
L 495.579421 487.224998 
L 496.237157 482.345688 
L 498.68872 473.001497 
L 499.226867 472.668125 
L 499.914501 471.822 
L 501.020694 465.990371 
L 501.528944 463.242177 
L 502.665034 448.458302 
L 503.831021 432.802388 
L 504.727934 418.176997 
L 506.611452 404.925893 
L 506.701143 405.040724 
L 506.820732 405.193832 
L 507.747542 389.325153 
L 509.780545 336.945333 
L 509.959928 334.954426 
L 510.527973 330.509154 
L 510.587767 330.627721 
L 510.797046 331.216686 
L 511.544474 336.206412 
L 512.052725 339.330006 
L 512.082622 338.965363 
L 513.876448 315.807181 
L 515.042435 297.427376 
L 515.132127 297.576275 
L 515.520789 298.221506 
L 515.550686 298.134434 
L 516.298114 297.421804 
L 516.447599 297.486377 
L 517.464101 308.22139 
L 518.450705 318.244995 
L 518.570293 318.379873 
L 521.410518 338.695848 
L 521.739386 341.74105 
L 521.799181 342.566199 
L 523.14455 374.56778 
L 524.878582 423.487641 
L 525.775495 430.622369 
L 526.104364 431.33397 
L 527.001277 434.22019 
L 528.735309 469.253726 
L 529.990987 485.039042 
L 530.050781 484.748903 
L 530.110575 483.94749 
L 532.44255 430.343661 
L 533.070389 414.776458 
L 533.16008 415.042242 
L 533.279668 415.396619 
L 535.581745 447.576063 
L 535.850819 449.700978 
L 536.269379 451.274304 
L 536.329173 451.088931 
L 536.807527 449.246565 
L 537.166292 447.549055 
L 537.973514 436.14791 
L 540.185899 393.096213 
L 540.544665 391.316988 
L 540.90343 391.050209 
L 541.770446 388.857393 
L 543.474581 378.51939 
L 543.504478 378.350143 
L 543.564272 378.499799 
L 544.700362 381.343258 
L 545.02923 376.684091 
L 545.118921 376.947233 
L 547.690072 384.490633 
L 548.018941 391.143083 
L 548.108632 390.50487 
L 548.766368 385.049023 
L 549.932355 376.007128 
L 550.649886 370.656539 
L 550.70968 370.758407 
L 551.606593 372.758735 
L 551.63649 372.501695 
L 552.174638 368.63558 
L 554.6262 368.404628 
L 555.074657 369.200366 
L 555.612805 362.757331 
L 556.479821 351.407661 
L 556.808689 350.029224 
L 558.482927 346.893183 
L 558.542721 347.01703 
L 558.722104 347.388571 
L 559.768502 329.103895 
L 561.711814 323.839577 
L 562.758213 342.714058 
L 563.983994 343.884665 
L 564.282965 343.946446 
L 565.747923 346.176858 
L 566.585042 350.617886 
L 567.063396 357.057793 
L 568.289177 359.722527 
L 568.319074 359.620346 
L 569.724238 354.478461 
L 571.278887 346.224119 
L 571.308784 346.600328 
L 571.577858 348.766404 
L 573.431479 351.947894 
L 573.461376 351.881284 
L 573.670655 351.415015 
L 575.972732 397.715361 
L 576.750057 414.26988 
L 577.049028 414.640289 
L 577.078925 414.582679 
L 577.64697 413.27307 
L 578.06553 411.92441 
L 580.786166 403.128941 
L 581.922256 394.5334 
L 581.952153 394.729122 
L 583.357317 404.596792 
L 583.626391 406.528971 
L 586.227439 423.594902 
L 586.257336 423.256116 
L 586.52641 421.296903 
L 586.645998 421.641431 
L 588.021265 427.988036 
L 588.081059 428.248556 
L 588.140854 428.151701 
L 589.635709 425.555922 
L 591.010976 421.03283 
L 591.07077 420.655498 
L 591.130564 420.933912 
L 592.027477 426.453208 
L 592.894493 433.690163 
L 593.043979 434.204366 
L 595.525438 434.034512 
L 595.585232 433.82212 
L 595.645027 433.886356 
L 596.003792 434.402069 
L 598.335766 441.988743 
L 599.113091 454.506403 
L 599.142988 454.054103 
L 601.504859 416.699012 
L 602.341978 398.803241 
L 602.93992 393.382684 
L 603.208994 391.397217 
L 605.839939 377.562671 
L 605.899733 377.65485 
L 606.019322 377.83921 
L 606.497675 372.843772 
L 607.544074 362.589793 
L 607.902839 361.965936 
L 609.965739 375.274678 
L 611.849257 337.800478 
L 613.075038 314.028329 
L 613.344112 312.294273 
L 614.061643 303.611144 
L 614.09154 304.183095 
L 615.73588 337.725041 
L 616.483308 355.635043 
L 617.200838 371.884908 
L 617.948266 378.300812 
L 619.592607 398.112532 
L 620.818388 407.882598 
L 622.432832 409.361075 
L 623.299848 405.432963 
L 624.047275 403.438331 
L 624.914291 399.492578 
L 627.904002 460.715873 
L 627.963796 460.645411 
L 629.667931 458.468222 
L 630.475152 455.995767 
L 630.50505 456.121971 
L 631.043197 458.001565 
L 631.43186 457.831609 
L 631.730831 457.414723 
L 631.790625 457.501248 
L 631.970008 457.760822 
L 634.242188 407.37964 
L 634.959718 393.131131 
L 635.228792 393.190325 
L 637.082412 394.646 
L 637.770046 396.405053 
L 637.82984 396.346012 
L 638.158708 395.877468 
L 638.338091 394.919274 
L 639.235004 389.184208 
L 640.012329 384.86677 
L 642.254611 357.630266 
L 642.613377 353.935797 
L 642.942245 352.00205 
L 643.002039 352.149219 
L 643.629878 353.964766 
L 645.603087 367.022949 
L 645.722675 367.050429 
L 646.918559 352.288873 
L 647.038148 352.831705 
L 649.220636 362.73839 
L 649.997961 346.005755 
L 652.329935 261.111087 
L 652.718598 260.841262 
L 652.868083 261.260355 
L 653.555716 253.855972 
L 655.050572 241.526597 
L 655.857793 239.633445 
L 656.963986 258.144021 
L 658.010385 266.685574 
L 658.518636 267.079384 
L 658.548533 266.967412 
L 659.535137 262.873481 
L 660.671227 257.311244 
L 660.701124 257.515437 
L 661.956803 266.759606 
L 661.9867 265.95448 
L 664.288777 206.817963 
L 664.946513 204.825175 
L 666.740339 238.812477 
L 667.158899 251.877115 
L 667.188796 251.62714 
L 667.816635 246.377669 
L 667.876429 246.810818 
L 669.819741 261.472997 
L 670.806345 278.329984 
L 670.896037 278.043987 
L 671.643464 276.030327 
L 671.733155 275.803628 
L 671.763053 275.996437 
L 673.526982 286.655143 
L 674.842454 294.014158 
L 676.038338 301.563022 
L 676.935252 310.455648 
L 677.533194 333.031478 
L 679.895065 377.994722 
L 679.984756 377.810981 
L 680.343521 377.07602 
L 681.5992 394.852171 
L 681.658994 394.633272 
L 681.718788 394.414373 
L 681.778582 394.495555 
L 682.10745 394.942055 
L 682.167245 394.878755 
L 684.708498 392.188505 
L 685.216749 387.801644 
L 685.93428 386.577406 
L 687.309546 383.397544 
L 687.877591 382.013699 
L 687.907489 382.238851 
L 688.236357 384.612962 
L 688.296151 384.423513 
L 689.701315 379.755592 
L 691.106479 364.090134 
L 692.302363 348.448916 
L 693.019893 359.852715 
L 693.707527 370.39462 
L 695.292073 374.961675 
L 696.577649 357.834016 
L 696.637443 358.100364 
L 697.265282 361.402698 
L 697.414768 363.154003 
L 699.059108 392.282641 
L 700.195198 406.349683 
L 700.464272 407.488384 
L 703.633365 297.172982 
L 704.61997 292.471979 
L 704.679764 292.618813 
L 707.60968 300.081418 
L 707.729268 299.904206 
L 708.177725 299.23966 
L 708.207622 299.295144 
L 708.53649 299.905466 
L 711.5262 351.104108 
L 711.645789 350.95638 
L 711.94476 350.587059 
L 712.004554 350.662563 
L 712.303525 351.040088 
L 713.828277 335.620532 
L 714.725191 330.099567 
L 715.412824 325.726161 
L 718.13346 414.047769 
L 718.402534 418.848005 
L 718.462329 418.185212 
L 720.734508 392.999074 
L 720.794303 393.310194 
L 722.647923 402.630688 
L 723.634527 384.776383 
L 724.352058 369.219596 
L 725.637633 344.366828 
L 725.697428 344.951157 
L 727.132489 357.997141 
L 729.135595 359.954427 
L 730.181993 362.015553 
L 730.540758 363.381698 
L 730.570655 363.095138 
L 732.095408 347.493043 
L 732.69335 339.195617 
L 734.606764 350.324816 
L 735.802649 370.376552 
L 736.131517 371.042683 
L 737.596475 353.118823 
L 737.656269 353.665266 
L 739.450095 371.009576 
L 740.586185 384.677354 
L 740.616082 384.166896 
L 741.811966 365.491289 
L 742.021246 364.967812 
L 742.051143 365.083253 
L 744.891368 375.643731 
L 745.130545 375.900814 
L 745.429516 375.735909 
L 745.48931 375.659438 
L 748.6883 414.984724 
L 749.525419 424.148605 
L 749.615111 423.985076 
L 750.541921 422.269052 
L 750.571818 422.370134 
L 751.020274 423.535321 
L 751.080069 423.571514 
L 753.292454 454.922313 
L 754.548133 469.553638 
L 754.906898 472.099059 
L 756.64093 480.974729 
L 756.670827 480.692083 
L 757.836814 470.569999 
L 758.225476 469.171973 
L 759.600743 463.711057 
L 760.318274 462.240314 
L 761.304878 460.653677 
L 762.889425 448.258237 
L 764.294588 439.82298 
L 764.354383 440.018221 
L 765.340987 443.239694 
L 765.370884 443.08031 
L 765.580164 441.504457 
L 766.2379 435.721413 
L 767.882241 423.914845 
L 768.330697 421.42762 
L 768.390492 421.594732 
L 768.480183 421.845401 
L 768.51008 421.694282 
L 769.765758 415.91457 
L 771.469893 415.384282 
L 771.679173 416.224866 
L 772.63588 419.355322 
L 772.665777 419.24862 
L 773.233822 417.624758 
L 773.921456 416.201709 
L 776.791578 324.570819 
L 776.911166 321.414747 
L 777.000857 321.684049 
L 778.10705 321.11956 
L 778.615301 319.162032 
L 779.362729 310.264873 
L 780.528716 289.363748 
L 781.575114 277.756339 
L 781.664806 277.816072 
L 783.279249 278.891277 
L 783.428735 277.743977 
L 783.518426 277.759621 
L 783.697809 277.879032 
L 784.594722 279.559056 
L 785.13287 280.964773 
L 785.162767 280.85793 
L 786.478239 275.786786 
L 788.272066 263.729395 
L 788.481345 263.194038 
L 788.870008 260.740901 
L 791.799924 336.222824 
L 791.979306 338.635318 
L 792.547351 342.333583 
L 792.577248 341.943227 
L 793.504059 331.283005 
L 793.683441 330.524563 
L 795.537062 324.843665 
L 796.523666 334.89479 
L 796.703049 334.792146 
L 798.646361 333.592048 
L 798.975229 332.919188 
L 799.005126 333.1076 
L 799.483479 335.521508 
L 800.081421 335.669417 
L 801.097923 342.208763 
L 801.157717 341.914506 
L 803.160823 331.588313 
L 803.639177 327.782521 
L 804.087633 325.196543 
L 804.11753 325.605031 
L 804.775267 333.444929 
L 805.552591 334.126413 
L 806.479402 327.740012 
L 807.495903 313.715032 
L 807.555697 314.060037 
L 808.572199 320.357133 
L 810.694893 361.352738 
L 811.502115 367.113769 
L 813.774295 382.335337 
L 814.461928 389.44792 
L 814.910385 394.453675 
L 814.940282 394.346654 
L 816.046475 390.386886 
L 816.076372 390.619327 
L 817.959889 405.877132 
L 819.036185 425.223491 
L 819.125877 425.086178 
L 819.634127 424.308069 
L 820.650629 435.510369 
L 821.906307 455.013175 
L 823.490854 471.009053 
L 823.550648 470.748622 
L 824.626944 465.855695 
L 824.716635 466.040584 
L 825.733136 468.389037 
L 826.659947 470.773894 
L 827.1383 472.6096 
L 828.035213 473.794953 
L 828.752744 474.321306 
L 829.858937 465.899983 
L 829.888834 466.146766 
L 829.918731 465.6636 
L 833.865149 400.096491 
L 835.718769 369.460524 
L 836.824962 353.716447 
L 837.871361 345.441539 
L 838.618788 339.49295 
L 840.023952 294.706314 
L 841.130145 250.066779 
L 843.910575 94.907296 
L 844.000267 95.023497 
L 844.089958 95.139699 
L 844.119855 95.063602 
L 844.837386 93.23728 
L 848.155964 163.565596 
L 848.604421 171.241517 
L 849.800305 190.577596 
L 852.939501 218.654857 
L 853.627134 231.984579 
L 856.198285 335.935851 
L 858.350877 448.921241 
L 858.859127 469.533982 
L 858.918921 468.581402 
L 859.486966 461.254351 
L 861.400381 439.280317 
L 863.134413 428.890813 
L 863.463281 426.188564 
L 864.539577 417.32904 
L 864.629268 417.343167 
L 865.466387 417.368195 
L 867.529287 417.259547 
L 868.007641 414.079272 
L 868.276715 410.773019 
L 871.206631 337.172276 
L 871.744779 340.302994 
L 872.133441 342.013479 
L 872.342721 342.647527 
L 872.671589 345.064555 
L 872.76128 344.966071 
L 873.17984 344.506478 
L 875.721094 367.196501 
L 876.498418 381.156718 
L 876.857184 384.759325 
L 878.053068 394.742948 
L 878.471627 397.341351 
L 880.444836 398.102353 
L 881.461338 398.763272 
L 883.19537 406.35297 
L 886.065492 467.637123 
L 886.155183 470.005859 
L 886.244874 469.78937 
L 886.513948 468.856711 
L 886.992302 467.403147 
L 887.620141 467.476531 
L 889.862424 485.850726 
L 890.609851 488.826149 
L 890.639748 488.58495 
L 891.686147 481.044688 
L 892.37378 479.283695 
L 892.672752 478.704599 
L 892.732546 478.765793 
L 893.390282 479.438922 
L 893.50987 480.26688 
L 893.539768 480.011556 
L 896.499581 454.280471 
L 896.649066 454.313786 
L 898.114024 454.747998 
L 898.831555 455.213241 
L 900.715072 459.508106 
L 900.74497 459.409319 
L 901.043941 458.753087 
L 903.973857 460.327572 
L 904.66149 461.218066 
L 904.990358 462.452599 
L 905.408918 463.356052 
L 907.86048 445.34649 
L 908.458422 438.735762 
L 908.578011 439.032314 
L 911.238853 445.630616 
L 911.537824 448.508023 
L 911.98628 448.881375 
L 912.046075 448.80314 
L 913.810004 446.33552 
L 914.975991 442.734244 
L 915.005888 442.825846 
L 915.514139 444.383076 
L 915.544036 444.1692 
L 915.932698 440.63948 
L 918.862614 411.312394 
L 919.071894 409.140185 
L 920.297675 389.390035 
L 920.506955 387.807753 
L 922.00181 380.441831 
L 922.031707 380.762158 
L 923.55646 398.215905 
L 925.320389 425.465547 
L 925.439977 427.396372 
L 925.529668 427.379283 
L 926.187405 427.25396 
L 927.502877 413.864343 
L 928.728659 403.825386 
L 929.625572 399.261089 
L 929.95444 398.04289 
L 930.462691 393.317476 
L 930.552382 393.400016 
L 931.000838 393.812713 
L 931.658575 399.53475 
L 931.688472 399.17658 
L 933.841063 372.05359 
L 934.110137 369.416122 
L 934.648285 366.557414 
L 934.678182 366.763303 
L 936.950362 382.410818 
L 936.980259 382.149061 
L 937.249333 380.733302 
L 937.48851 380.692017 
L 940.209146 304.184614 
L 940.47822 297.642695 
L 940.508117 297.745804 
L 940.747294 298.929507 
L 942.301944 308.62968 
L 943.707107 320.008812 
L 944.544226 324.337498 
L 944.574123 324.352771 
L 944.604021 324.259374 
L 944.992683 322.856928 
L 946.068979 311.796412 
L 946.607127 302.529174 
L 946.696818 302.841166 
L 947.952496 307.209053 
L 949.746322 338.265924 
L 950.194779 341.669435 
L 951.241178 351.986088 
L 952.227782 339.233862 
L 952.437062 334.986504 
L 952.496856 335.379193 
L 955.426772 354.626078 
L 955.456669 354.325868 
L 955.994817 347.845604 
L 956.712348 338.918184 
L 956.772142 339.401354 
L 957.190701 342.350225 
L 959.702058 320.756151 
L 959.911338 320.155486 
L 959.941235 320.257965 
L 960.180412 321.077799 
L 961.376296 341.698688 
L 961.406193 341.044141 
L 963.050534 302.82398 
L 964.455697 254.28411 
L 964.84436 253.151721 
L 965.143331 250.564201 
L 966.189729 239.773233 
L 966.219627 240.102213 
L 967.146437 249.128279 
L 971.332031 285.779838 
L 971.660899 289.794206 
L 971.720694 289.296969 
L 972.139253 285.816312 
L 972.199047 286.162572 
L 972.617607 288.486148 
L 972.647504 288.28883 
L 975.158861 271.301109 
L 975.995979 256.404916 
L 976.324848 250.966563 
L 976.354745 251.642237 
L 978.088777 288.456153 
L 979.015587 304.493341 
L 979.105278 304.388215 
L 979.314558 304.142921 
L 980.659928 260.073957 
L 982.543445 204.280511 
L 983.589844 172.327345 
L 986.549657 61.571881 
L 987.685747 44.012555 
L 987.954821 42.813105 
L 987.984718 43.128498 
L 990.017721 65.746184 
L 990.555869 71.813268 
L 990.585766 71.686064 
L 990.615663 71.558859 
L 990.64556 71.774833 
L 992.260004 83.437446 
L 993.156917 61.659098 
L 994.083727 43.164148 
L 995.249714 38.659091 
L 998.448704 145.061803 
L 1001.438415 273.184708 
L 1002.93327 301.775269 
L 1004.637405 308.89496 
L 1005.175553 306.482202 
L 1007.208556 300.102836 
L 1007.955983 327.232464 
L 1010.228163 419.024847 
L 1011.483841 425.095751 
L 1012.889005 436.800205 
L 1013.905507 439.892204 
L 1015.759127 445.977947 
L 1016.087995 446.655437 
L 1017.732336 430.134456 
L 1019.197294 416.544597 
L 1019.585957 416.056665 
L 1019.615854 416.236005 
L 1020.602458 422.763765 
L 1021.499371 431.500526 
L 1022.575667 434.695227 
L 1022.605564 434.487577 
L 1023.293197 428.516325 
L 1023.950934 423.455391 
L 1024.548876 418.284655 
L 1027.000438 346.306038 
L 1027.658175 328.285261 
L 1028.913853 319.923817 
L 1031.156136 291.930108 
L 1033.846875 281.638815 
L 1034.175743 284.955106 
L 1035.431421 291.040418 
L 1035.461319 291.011311 
L 1035.909775 290.574703 
L 1036.597409 277.27127 
L 1038.690206 248.000996 
L 1039.46753 238.186978 
L 1039.497428 238.426939 
L 1040.125267 244.30135 
L 1041.470636 263.893912 
L 1042.457241 291.179208 
L 1042.517035 290.975197 
L 1043.443845 287.428606 
L 1043.683022 286.431657 
L 1043.712919 286.553637 
L 1045.925305 296.017597 
L 1046.044893 297.785379 
L 1046.104687 297.355076 
L 1048.825324 277.23636 
L 1049.184089 270.588965 
L 1050.858327 255.410235 
L 1050.888224 255.793441 
L 1053.848037 295.091456 
L 1055.462481 327.344517 
L 1056.030526 334.184298 
L 1056.329497 336.834466 
L 1056.389291 336.543561 
L 1056.957336 332.541898 
L 1057.495484 324.450654 
L 1059.438796 305.125396 
L 1060.006841 300.391569 
L 1060.873857 299.915944 
L 1060.993445 299.007892 
L 1061.023342 299.437976 
L 1062.637786 321.105002 
L 1063.983155 335.707256 
L 1064.04295 335.390805 
L 1065.029554 330.481186 
L 1065.448114 332.077625 
L 1066.016159 333.176926 
L 1068.348133 338.389913 
L 1068.647104 340.202461 
L 1068.706898 340.020713 
L 1069.245046 338.058114 
L 1069.394531 336.966335 
L 1069.663605 335.716277 
L 1070.65021 333.288239 
L 1070.889386 331.734031 
L 1071.875991 326.811604 
L 1071.905888 327.027861 
L 1073.669817 340.445452 
L 1074.835804 359.693059 
L 1074.925495 360.425981 
L 1074.955393 360.330283 
L 1076.749219 354.226888 
L 1076.988396 353.268507 
L 1077.078087 353.29818 
L 1077.915206 353.575125 
L 1079.200781 372.194006 
L 1079.499752 376.377641 
L 1079.559546 376.267226 
L 1079.978106 375.494322 
L 1080.605945 369.344287 
L 1082.489463 353.682883 
L 1082.579154 353.704269 
L 1082.818331 353.838405 
L 1083.23689 355.126873 
L 1083.326582 355.050676 
L 1084.911128 353.704519 
L 1084.941025 353.761016 
L 1085.568864 354.973965 
L 1087.213205 373.843082 
L 1088.678163 392.880255 
L 1089.933841 396.802291 
L 1090.292607 400.631294 
L 1090.322504 399.85127 
L 1093.073037 325.363937 
L 1093.401905 316.008986 
L 1094.029745 308.351497 
L 1094.448304 303.452416 
L 1094.478201 303.595061 
L 1095.434909 308.159704 
L 1097.5875 277.912277 
L 1098.663796 256.454781 
L 1100.039062 249.715419 
L 1100.935976 243.278491 
L 1100.99577 243.39313 
L 1101.474123 244.114482 
L 1102.221551 239.674426 
L 1103.26795 231.288841 
L 1104.493731 220.342117 
L 1105.241159 216.300067 
L 1106.855602 270.353733 
L 1108.350457 319.070339 
L 1110.38346 327.274975 
L 1113.373171 391.764748 
L 1114.509261 392.037347 
L 1116.004116 408.612376 
L 1116.422675 409.907764 
L 1121.056726 449.155613 
L 1121.206212 449.906263 
L 1121.266006 449.674075 
L 1123.328906 442.105333 
L 1124.195922 440.873654 
L 1124.255716 440.969218 
L 1124.375305 441.160344 
L 1124.405202 441.059676 
L 1126.228925 434.616918 
L 1126.587691 432.808832 
L 1127.365015 431.525953 
L 1127.394912 431.652914 
L 1129.457813 440.413203 
L 1129.48771 440.191593 
L 1130.354726 434.395571 
L 1130.862976 434.146463 
L 1132.925877 429.238588 
L 1135.198056 425.358373 
L 1136.453735 398.482622 
L 1138.187767 373.017873 
L 1138.247561 373.760576 
L 1139.08468 382.813476 
L 1140.131079 393.702355 
L 1141.835213 411.845858 
L 1142.403258 416.083226 
L 1145.183689 421.03661 
L 1145.213586 421.240922 
L 1145.303277 421.223203 
L 1145.811528 421.189033 
L 1146.887824 423.360905 
L 1148.382679 407.906611 
L 1150.056917 393.086862 
L 1150.146608 392.700353 
L 1151.222904 409.542177 
L 1151.312595 410.396112 
L 1151.342492 410.133395 
L 1153.166216 393.297313 
L 1154.332203 354.456707 
L 1156.365206 348.000135 
L 1157.471399 343.77196 
L 1158.517797 340.388823 
L 1159.773476 329.06776 
L 1160.311623 322.162325 
L 1160.939463 310.993419 
L 1162.284832 243.545618 
L 1163.899276 176.770527 
L 1163.988967 177.423591 
L 1164.975572 183.846813 
L 1165.962176 186.246814 
L 1166.320941 190.95488 
L 1167.546723 222.625588 
L 1169.250857 264.333737 
L 1169.310652 264.020849 
L 1171.373552 249.712302 
L 1172.001391 247.421331 
L 1172.031288 247.629345 
L 1173.017893 253.95824 
L 1173.496246 251.888965 
L 1174.393159 251.9895 
L 1175.858117 255.781455 
L 1176.456059 284.705244 
L 1179.02721 409.988593 
L 1181.478773 413.841763 
L 1181.71795 414.883069 
L 1182.136509 416.94324 
L 1184.169512 425.746222 
L 1184.289101 426.501278 
L 1187.159223 359.589004 
L 1187.428296 354.197424 
L 1187.966444 349.783899 
L 1188.295312 351.73135 
L 1188.32521 351.51062 
L 1191.015949 331.069552 
L 1191.434508 325.67669 
L 1192.062348 321.65639 
L 1193.138643 312.797766 
L 1193.736585 309.970426 
L 1193.766482 310.129635 
L 1193.826277 309.965403 
L 1194.095351 308.985459 
L 1194.902572 302.999812 
L 1197.324238 263.98357 
L 1199.476829 134.609893 
L 1200.284051 106.798234 
L 1200.343845 108.104336 
L 1202.346951 149.765596 
L 1203.034585 154.271132 
L 1203.094379 154.068823 
L 1203.243864 153.563052 
L 1206.203678 183.918014 
L 1206.353163 184.845901 
L 1208.804726 194.845755 
L 1209.163491 197.881996 
L 1209.910918 206.745914 
L 1212.27279 247.850314 
L 1215.2625 437.730538 
L 1215.47178 437.839486 
L 1217.205812 437.880611 
L 1218.222313 430.522289 
L 1218.341902 430.339323 
L 1218.371799 430.447195 
L 1219.059432 433.261941 
L 1219.986242 439.477313 
L 1220.075934 439.435761 
L 1220.972847 439.020239 
L 1223.603792 422.660382 
L 1225.188338 407.158523 
L 1225.517207 405.606859 
L 1228.805888 308.701595 
L 1230.300743 288.066619 
L 1231.377039 278.957468 
L 1231.436833 279.388209 
L 1232.453335 285.930616 
L 1233.380145 290.130768 
L 1233.918293 290.016291 
L 1234.934794 286.756279 
L 1234.964691 286.874743 
L 1235.472942 289.287834 
L 1236.369855 295.362958 
L 1236.429649 295.128406 
L 1238.970903 284.722133 
L 1239.927611 280.12643 
L 1240.256479 277.173286 
L 1240.465758 275.034336 
L 1240.495655 275.498644 
L 1242.82763 312.977249 
L 1243.664748 335.896945 
L 1246.325591 357.501896 
L 1246.355488 357.276245 
L 1246.594665 355.471044 
L 1246.684356 355.519223 
L 1247.073018 355.793018 
L 1248.119417 358.384069 
L 1250.570979 321.900351 
L 1251.49779 305.642999 
L 1253.291616 289.729499 
L 1253.321513 290.090292 
L 1254.69678 307.9873 
L 1256.490606 341.708485 
L 1257.716387 355.699602 
L 1257.776181 355.439087 
L 1257.955564 354.36052 
L 1258.673095 345.592604 
L 1260.915377 337.706084 
L 1260.945274 337.876643 
L 1261.154554 339.594082 
L 1261.961776 346.689197 
L 1263.067969 352.476055 
L 1263.486528 359.398265 
L 1264.981383 379.313383 
L 1265.758708 390.021447 
L 1267.522637 417.515132 
L 1268.329859 433.000101 
L 1268.598933 433.313314 
L 1268.927801 434.17102 
L 1268.957698 434.0764 
L 1269.196875 433.146155 
L 1269.914405 421.009328 
L 1271.409261 394.846794 
L 1272.874219 380.505823 
L 1274.249486 381.707802 
L 1275.863929 396.35498 
L 1275.95362 396.341576 
L 1275.983518 396.337108 
L 1276.282489 394.533574 
L 1276.701048 391.378585 
L 1276.790739 391.420573 
L 1277.029916 391.532541 
L 1278.494874 356.798126 
L 1280.019627 331.173569 
L 1280.318598 331.914771 
L 1281.006231 336.768586 
L 1282.232012 343.160417 
L 1283.69697 336.061248 
L 1284.085633 332.93567 
L 1284.145427 332.614129 
L 1284.205221 332.898982 
L 1286.716578 345.327555 
L 1286.806269 347.149109 
L 1286.89596 347.080262 
L 1287.224829 346.70469 
L 1289.227934 342.172022 
L 1289.945465 335.749087 
L 1291.679497 329.130961 
L 1291.978468 325.637649 
L 1292.008365 326.066963 
L 1292.78569 338.550078 
L 1293.443426 352.543769 
L 1294.968178 378.495787 
L 1295.05787 378.450154 
L 1295.237252 378.358889 
L 1295.894989 374.465932 
L 1296.373342 372.861405 
L 1297.060976 371.697639 
L 1297.180564 371.782237 
L 1298.316654 373.547098 
L 1298.675419 374.359889 
L 1300.349657 386.065912 
L 1301.635232 397.019227 
L 1301.66513 396.804909 
L 1301.754821 396.161956 
L 1301.784718 396.577771 
L 1302.502248 405.060533 
L 1304.744531 413.794452 
L 1304.804325 413.6291 
L 1305.342473 412.140927 
L 1305.37237 412.32002 
L 1306.478563 419.094694 
L 1306.538357 418.744735 
L 1307.64455 411.940263 
L 1308.272389 403.044411 
L 1309.498171 392.751675 
L 1309.528068 392.951012 
L 1311.05282 403.117226 
L 1311.082717 402.672311 
L 1311.800248 390.40542 
L 1315.447694 329.602441 
L 1315.926048 323.294012 
L 1316.972447 312.218989 
L 1317.301315 310.23072 
L 1317.361109 310.467943 
L 1317.899257 313.043933 
L 1318.58689 319.104434 
L 1318.915758 321.678816 
L 1319.065244 322.282454 
L 1319.095141 322.124816 
L 1320.350819 314.980464 
L 1321.546704 299.472213 
L 1322.054954 298.361513 
L 1324.446723 319.758697 
L 1326.001372 308.635052 
L 1326.031269 309.065389 
L 1327.795198 336.044774 
L 1328.542626 346.538278 
L 1329.469436 357.122309 
L 1330.725114 368.662228 
L 1331.233365 371.860242 
L 1331.920998 376.386968 
L 1332.638529 378.673031 
L 1332.9375 380.247672 
L 1333.415854 381.824006 
L 1333.714825 382.040876 
L 1334.103487 385.842686 
L 1335.448857 406.258128 
L 1336.34577 415.868674 
L 1337.003506 419.501814 
L 1337.033403 419.325608 
L 1339.156098 407.067442 
L 1339.185995 407.272971 
L 1341.159204 420.092347 
L 1342.265396 425.849949 
L 1343.102515 429.457353 
L 1343.700457 434.571837 
L 1344.208708 438.750696 
L 1346.15202 447.459024 
L 1346.749962 448.452207 
L 1346.86955 448.630157 
L 1346.929345 448.562178 
L 1347.557184 447.696353 
L 1349.889158 433.842264 
L 1350.098437 433.26654 
L 1350.337614 433.216216 
L 1351.503601 407.546812 
L 1353.327325 375.287012 
L 1353.387119 376.00205 
L 1354.194341 384.618055 
L 1354.553106 384.864005 
L 1355.53971 385.962817 
L 1356.257241 387.688332 
L 1356.556212 388.502604 
L 1356.586109 388.296254 
L 1358.619112 373.576282 
L 1359.127363 369.394889 
L 1359.545922 367.557092 
L 1359.575819 367.80394 
L 1360.50263 374.582436 
L 1361.967588 380.270055 
L 1364.62843 396.248332 
L 1365.286166 383.96591 
L 1365.375857 384.417817 
L 1367.61814 395.7155 
L 1368.275877 414.917681 
L 1368.365568 414.905099 
L 1369.262481 414.779282 
L 1369.710938 410.465217 
L 1369.710938 410.465217 
" clip-path="url(#pd81107b9ed)" style="fill: none; stroke: #dd8452; stroke-width: 1.5; stroke-linecap: round"/>
   </g>
   <g id="patch_3">
    <path d="M 82.640625 661.5 
L 82.640625 9 
" style="fill: none; stroke: #cccccc; stroke-width: 1.25; stroke-linejoin: miter; stroke-linecap: square"/>
   </g>
   <g id="patch_4">
    <path d="M 1431 661.5 
L 1431 9 
" style="fill: none; stroke: #cccccc; stroke-width: 1.25; stroke-linejoin: miter; stroke-linecap: square"/>
   </g>
   <g id="patch_5">
    <path d="M 82.640625 661.5 
L 1431 661.5 
" style="fill: none; stroke: #cccccc; stroke-width: 1.25; stroke-linejoin: miter; stroke-linecap: square"/>
   </g>
   <g id="patch_6">
    <path d="M 82.640625 9 
L 1431 9 
" style="fill: none; stroke: #cccccc; stroke-width: 1.25; stroke-linejoin: miter; stroke-linecap: square"/>
   </g>
   <g id="legend_1">
    <g id="patch_7">
     <path d="M 1305.223594 70.637812 
L 1419.45 70.637812 
Q 1422.75 70.637812 1422.75 67.337813 
L 1422.75 20.55 
Q 1422.75 17.25 1419.45 17.25 
L 1305.223594 17.25 
Q 1301.923594 17.25 1301.923594 20.55 
L 1301.923594 67.337813 
Q 1301.923594 70.637812 1305.223594 70.637812 
z
" style="fill: #ffffff; opacity: 0.8; stroke: #cccccc; stroke-linejoin: miter"/>
    </g>
    <g id="line2d_13">
     <path d="M 1308.523594 30.612422 
L 1325.023594 30.612422 
L 1341.523594 30.612422 
" style="fill: none; stroke: #4c72b0; stroke-width: 1.5; stroke-linecap: round"/>
    </g>
    <g id="text_14">
     <!-- 256 NN -->
     <g style="fill: #262626" transform="translate(1354.723594 36.387422)scale(0.165 -0.165)">
      <defs>
       <path id="DejaVuSans-35" d="M 691 4666 
L 3169 4666 
L 3169 4134 
L 1269 4134 
L 1269 2991 
Q 1406 3038 1543 3061 
Q 1681 3084 1819 3084 
Q 2600 3084 3056 2656 
Q 3513 2228 3513 1497 
Q 3513 744 3044 326 
Q 2575 -91 1722 -91 
Q 1428 -91 1123 -41 
Q 819 9 494 109 
L 494 744 
Q 775 591 1075 516 
Q 1375 441 1709 441 
Q 2250 441 2565 725 
Q 2881 1009 2881 1497 
Q 2881 1984 2565 2268 
Q 2250 2553 1709 2553 
Q 1456 2553 1204 2497 
Q 953 2441 691 2322 
L 691 4666 
z
" transform="scale(0.015625)"/>
       <path id="DejaVuSans-20" transform="scale(0.015625)"/>
       <path id="DejaVuSans-4e" d="M 628 4666 
L 1478 4666 
L 3547 763 
L 3547 4666 
L 4159 4666 
L 4159 0 
L 3309 0 
L 1241 3903 
L 1241 0 
L 628 0 
L 628 4666 
z
" transform="scale(0.015625)"/>
      </defs>
      <use xlink:href="#DejaVuSans-32"/>
      <use xlink:href="#DejaVuSans-35" x="63.623047"/>
      <use xlink:href="#DejaVuSans-36" x="127.246094"/>
      <use xlink:href="#DejaVuSans-20" x="190.869141"/>
      <use xlink:href="#DejaVuSans-4e" x="222.65625"/>
      <use xlink:href="#DejaVuSans-4e" x="297.460938"/>
     </g>
    </g>
    <g id="line2d_14">
     <path d="M 1308.523594 54.831328 
L 1325.023594 54.831328 
L 1341.523594 54.831328 
" style="fill: none; stroke: #dd8452; stroke-width: 1.5; stroke-linecap: round"/>
    </g>
    <g id="text_15">
     <!-- 128 NN -->
     <g style="fill: #262626" transform="translate(1354.723594 60.606328)scale(0.165 -0.165)">
      <use xlink:href="#DejaVuSans-31"/>
      <use xlink:href="#DejaVuSans-32" x="63.623047"/>
      <use xlink:href="#DejaVuSans-38" x="127.246094"/>
      <use xlink:href="#DejaVuSans-20" x="190.869141"/>
      <use xlink:href="#DejaVuSans-4e" x="222.65625"/>
      <use xlink:href="#DejaVuSans-4e" x="297.460938"/>
     </g>
    </g>
   </g>
  </g>
 </g>
 <defs>
  <clipPath id="pd81107b9ed">
   <rect x="82.640625" y="9" width="1348.359375" height="652.5"/>
  </clipPath>
 </defs>
</svg>
